<svg width="47" height="38" viewBox="0 0 47 38" fill="none" xmlns="http://www.w3.org/2000/svg">
<path d="M15.2247 18.6093C6.87565 18.5106 8.10345 7.3597 8.10345 7.3597C8.44723 -0.0906769 14.6353 -0.0413362 15.2738 0.00800405C15.8631 0.00800405 22.1003 -0.0906769 22.4441 7.3597C22.4441 7.3597 23.6719 18.5106 15.3229 18.6093C15.2738 18.6093 15.2738 18.6093 15.2247 18.6093ZM34.722 22.4085C41.4504 22.3591 40.4681 13.3792 40.4681 13.3792C40.1735 7.3597 35.2132 7.40904 34.722 7.45838C34.2309 7.45838 29.2215 7.40904 28.976 13.3792C28.976 13.3792 27.9937 22.3098 34.722 22.4085ZM47 32.6713V31.4871C46.9509 29.5628 46.558 28.1813 44.5935 26.9478C41.9906 25.2702 39.0439 23.8393 39.0439 23.8393L36.7356 31.2404L35.3605 27.3918C37.767 24.0367 35.2132 23.8887 34.722 23.8887C34.28 23.8887 31.7262 24.0367 34.0836 27.3918L32.7085 31.2897L30.4002 23.8887C30.4002 23.8887 29.5653 24.2834 28.3375 24.9248C28.092 24.7275 27.7973 24.5301 27.5026 24.3328C24.2612 22.2605 20.627 20.5336 20.627 20.5336L17.7294 29.7108L16.0596 24.9248C19.0063 20.7803 15.8631 20.5829 15.2738 20.5829C14.6844 20.5829 11.5413 20.7803 14.488 24.9248L12.8182 29.7108L9.87147 20.4842C9.87147 20.4842 6.2372 22.2605 2.99582 24.2834C0.54023 25.813 0.0982236 27.4905 0 29.9082V31.3884V38H15.1755H22.3459H30.4002H34.6729H46.9509V32.6713H47Z" fill="#FFBB05"/>
</svg>
