<svg width="48" height="54" viewBox="0 0 48 54" fill="none" xmlns="http://www.w3.org/2000/svg">
<path d="M36.8127 30.4315C34.6 30.4314 32.4369 31.1077 30.597 32.3751C28.7571 33.6424 27.323 35.4438 26.4762 37.5514C25.6293 39.659 25.4077 41.9781 25.8393 44.2156C26.2709 46.4531 27.3364 48.5083 28.901 50.1215C30.4657 51.7346 32.4591 52.8332 34.6294 53.2783C36.7996 53.7234 39.0491 53.495 41.0935 52.6221C43.1378 51.7491 44.8851 50.2707 46.1145 48.3739C47.3438 46.4771 48 44.247 48 41.9657C47.9938 38.9087 46.8132 35.9787 44.7165 33.8171C42.6198 31.6554 39.7779 30.438 36.8127 30.4315ZM37.0676 41.2824C38.9002 42.0097 40.9773 42.8346 40.9773 44.8243C40.9773 46.5604 39.4816 48.0055 37.5226 48.2913V49.4224C37.5226 49.6168 37.4477 49.8032 37.3144 49.9407C37.181 50.0781 37.0002 50.1554 36.8116 50.1554C36.6231 50.1554 36.4423 50.0781 36.3089 49.9407C36.1756 49.8032 36.1007 49.6168 36.1007 49.4224V48.2947C34.1155 48.0128 32.646 46.5593 32.646 44.755C32.646 44.5606 32.7209 44.3742 32.8542 44.2367C32.9875 44.0992 33.1684 44.022 33.3569 44.022C33.5455 44.022 33.7263 44.0992 33.8596 44.2367C33.993 44.3742 34.0679 44.5606 34.0679 44.755C34.0679 45.9481 35.271 46.8823 36.8127 46.8823C38.3003 46.8823 39.5576 45.9407 39.5576 44.8266C39.5576 43.8416 38.0323 43.236 36.5579 42.6508C34.7253 41.9234 32.6481 41.0986 32.6481 39.1088C32.6481 37.3728 34.1439 35.9277 36.1029 35.6418V34.5085C36.1029 34.3141 36.1778 34.1277 36.3111 33.9902C36.4444 33.8528 36.6253 33.7755 36.8138 33.7755C37.0024 33.7755 37.1832 33.8528 37.3166 33.9902C37.4499 34.1277 37.5248 34.3141 37.5248 34.5085V35.6362C39.51 35.9181 40.9795 37.3716 40.9795 39.1759C40.9795 39.2722 40.9611 39.3675 40.9254 39.4564C40.8897 39.5453 40.8373 39.6261 40.7713 39.6942C40.7053 39.7623 40.6269 39.8163 40.5406 39.8531C40.4544 39.8899 40.3619 39.9089 40.2686 39.9089C40.1752 39.9089 40.0827 39.8899 39.9965 39.8531C39.9102 39.8163 39.8319 39.7623 39.7658 39.6942C39.6998 39.6261 39.6474 39.5453 39.6117 39.4564C39.576 39.3675 39.5576 39.2722 39.5576 39.1759C39.5576 37.9834 38.3544 37.0486 36.8127 37.0486C35.3246 37.0486 34.0679 37.9902 34.0679 39.1043C34.0679 40.0916 35.5932 40.6971 37.0676 41.2824ZM32.7291 17.0275H37.9432C38.1317 17.0275 38.3126 17.1048 38.4459 17.2422C38.5792 17.3797 38.6541 17.5661 38.6541 17.7605V29.107C38.0441 29.0146 37.4283 28.9681 36.8116 28.9678C35.1679 28.9662 33.5399 29.298 32.0203 29.9443V17.7594C32.0206 17.5656 32.0953 17.3798 32.2282 17.2426C32.361 17.1055 32.5411 17.0281 32.7291 17.0275ZM1.228 17.8733C1.28663 17.7223 1.39226 17.5958 1.5283 17.5135C1.66433 17.4312 1.82303 17.3979 1.97944 17.4188C13.561 18.9869 20.3277 15.9484 25.9115 6.59613L23.6829 5.00501C23.5747 4.92752 23.4894 4.82053 23.4367 4.69599C23.3841 4.57146 23.366 4.43428 23.3845 4.29976C23.4031 4.16524 23.4575 4.03869 23.5418 3.93423C23.6261 3.82977 23.7368 3.75151 23.8618 3.7082L33.0627 0.537221C33.1673 0.501479 33.2785 0.491292 33.3876 0.507466C33.4967 0.52364 33.6006 0.565732 33.6912 0.630418C33.7818 0.695105 33.8565 0.780615 33.9096 0.880198C33.9626 0.979782 33.9925 1.09071 33.9968 1.20423L34.3523 11.1992C34.3567 11.3348 34.3246 11.469 34.2594 11.5869C34.1942 11.7048 34.0986 11.8017 33.9832 11.8669C33.8678 11.9321 33.7371 11.9629 33.6056 11.956C33.4742 11.9492 33.3472 11.9048 33.2388 11.8279L31.2437 10.4031C29.4452 13.378 27.133 15.9879 24.4218 18.1033C21.9519 20.0235 19.0994 21.3543 16.0702 22C14.8326 22.2571 13.5733 22.3873 12.3108 22.3884C8.41239 22.39 4.61495 21.1106 1.46973 18.736C1.34236 18.6401 1.2495 18.5034 1.20574 18.3472C1.16198 18.1911 1.16981 18.0244 1.228 17.8733ZM28.518 22.6016C28.7066 22.6016 28.8874 22.6788 29.0207 22.8163C29.1541 22.9537 29.229 23.1401 29.229 23.3345V31.589C27.7348 32.7481 26.5096 34.2355 25.6423 35.9435C24.7751 37.6514 24.2875 39.537 24.215 41.4634H23.3061C23.1175 41.4634 22.9367 41.3861 22.8034 41.2487C22.67 41.1112 22.5951 40.9248 22.5951 40.7304V23.3345C22.5951 23.1401 22.67 22.9537 22.8034 22.8163C22.9367 22.6788 23.1175 22.6016 23.3061 22.6016H28.518ZM9.66986 26.5112C9.85842 26.5112 10.0393 26.5884 10.1726 26.7258C10.3059 26.8633 10.3808 27.0497 10.3808 27.2441V40.7309C10.3808 40.9253 10.3059 41.1118 10.1726 41.2492C10.0393 41.3867 9.85842 41.4639 9.66986 41.4639H4.48913C4.30057 41.4639 4.11974 41.3867 3.98641 41.2492C3.85307 41.1118 3.77817 40.9253 3.77817 40.7309V27.243C3.77817 27.0486 3.85307 26.8622 3.98641 26.7247C4.11974 26.5873 4.30057 26.51 4.48913 26.51L9.66986 26.5112ZM24.3419 43.8771C24.413 44.3703 24.5116 44.8588 24.6372 45.3403H0.666891C0.486309 45.3287 0.316797 45.2466 0.192889 45.1107C0.0689808 44.9747 0 44.7952 0 44.6087C0 44.4222 0.0689808 44.2426 0.192889 44.1067C0.316797 43.9708 0.486309 43.8887 0.666891 43.8771H24.3419ZM19.095 29.9691C19.2836 29.9691 19.4644 30.0464 19.5977 30.1838C19.7311 30.3213 19.806 30.5077 19.806 30.7021V40.7309C19.806 40.9253 19.7311 41.1118 19.5977 41.2492C19.4644 41.3867 19.2836 41.4639 19.095 41.4639H13.8809C13.6924 41.4639 13.5115 41.3867 13.3782 41.2492C13.2449 41.1118 13.17 40.9253 13.17 40.7309V30.701C13.17 30.5066 13.2449 30.3201 13.3782 30.1827C13.5115 30.0452 13.6924 29.968 13.8809 29.968L19.095 29.9691Z" fill="#FFBB05"/>
</svg>
