<svg width="533" height="275" viewBox="0 0 533 275" fill="none" xmlns="http://www.w3.org/2000/svg">
<path fill-rule="evenodd" clip-rule="evenodd" d="M-282.071 308.381L-394.456 195.783L-748.029 195.109C-748.505 197.494 -750.652 199.399 -753.277 199.394C-756.14 199.389 -758.764 196.998 -758.765 193.896C-758.765 191.032 -756.38 188.412 -753.278 188.418C-750.654 188.423 -748.506 190.336 -748.029 192.723L-640.669 192.928L-393.502 193.398L-384.673 202.244L-167.09 202.658L-121.29 156.933L5.87241 157.175L5.63387 156.936L42.6085 120.022L232.278 120.383L246.352 106.332L415.027 106.654L366.112 57.6461L242.528 57.4107L218.429 33.2654L-11.5603 32.8274L-39.7088 60.9294L-78.8356 60.8549L-142.289 124.204L-41.3704 124.396L2.99925 80.0994L124.913 80.3316C125.389 77.9464 127.536 76.0416 130.161 76.0466C133.024 76.0521 135.648 78.4431 135.649 81.545C135.649 84.4083 133.264 87.0285 130.162 87.0226C127.538 87.0176 125.39 85.1046 124.913 82.7176L3.95385 82.4873L-40.4158 126.784L-208.136 126.464L-241.055 159.329L-604.887 158.636L-604.887 157.205L-640.669 192.928L-642.339 191.254L-536.186 85.2762L-414.989 85.507L-416.659 83.8336L-361.078 28.3439L-124.885 28.7938L-100.077 4.02586L265.186 4.72161C265.663 2.33642 267.81 0.431677 270.434 0.436669C273.297 0.442148 275.922 2.83314 275.922 5.93506C275.923 9.03696 273.537 11.4185 270.436 11.4126C267.811 11.4076 265.664 9.49467 265.187 7.10768L-98.6448 6.41466L-180.466 88.1012L-535.232 87.4254L-603.933 156.013L-517.806 156.178L-475.345 113.786L-300.706 114.119C-300.229 111.734 -298.082 109.829 -295.458 109.834C-292.595 109.839 -289.97 112.23 -289.97 115.332C-289.969 118.196 -292.355 120.816 -295.456 120.81C-298.081 120.805 -300.228 118.892 -300.706 116.505L-474.39 116.174L-514.466 156.184L-242.249 156.702L-209.329 123.837L-142.766 123.964L-144.436 122.291L-80.2674 58.2275L-41.1406 58.302L-12.9922 30.2L219.144 30.6421L243.244 54.7873L366.827 55.0227L417.89 106.182L417.413 106.658L521.671 106.857C522.148 104.472 524.295 102.567 526.919 102.572C529.782 102.577 532.407 104.968 532.407 108.07C532.408 110.934 530.022 113.554 526.921 113.548C524.296 113.543 522.149 111.63 521.671 109.243L247.545 108.721L234.425 121.819L234.425 122.774L233.471 122.772L196.258 159.924L-120.335 159.321L-166.136 205.046L-382.287 204.634L-352.7 234.278L-352.7 232.131L-130.346 232.554L-90.2697 192.544L222.267 193.14L258.526 156.94L427.201 157.262L447.721 177.821C449.868 176.632 452.493 176.876 454.402 178.55C456.549 180.701 456.55 184.042 454.403 186.185C452.256 188.328 448.916 188.322 446.768 186.17C444.859 184.258 444.62 181.633 446.052 179.488L426.247 159.646L259.481 159.328L223.222 195.528L-89.0765 194.933L-129.152 234.942L-352.223 234.518L-282.071 308.381ZM-359.646 30.7327L-126.794 31.1763L-181.659 85.9514L-414.511 85.5079L-359.646 30.7327ZM43.5631 122.41L229.892 122.765L195.065 157.774L8.7354 157.419L43.5631 122.41Z" fill="url(#paint0_linear_40_6803)"/>
<path fill-rule="evenodd" clip-rule="evenodd" d="M-129.036 231.938L-129.079 235.092L117.331 239.004L149.41 240.301L232.018 237.008L260.39 200.589L323.676 202.597L323.77 199.444L258.883 197.386L230.426 233.914L149.405 237.144L117.414 235.851L-129.036 231.938Z" fill="url(#paint1_linear_40_6803)"/>
<path d="M321.091 205.121C323.181 207.343 326.674 207.454 328.893 205.368C331.111 203.282 331.215 199.789 329.124 197.566C327.034 195.343 323.541 195.232 321.323 197.318C319.104 199.405 319 202.898 321.091 205.121Z" fill="url(#paint2_linear_40_6803)"/>
<path fill-rule="evenodd" clip-rule="evenodd" d="M-269.203 274.907L-269.246 278.061L-22.8411 281.973L71.8956 284.978L71.9891 281.826L-22.76 278.82L-269.203 274.907Z" fill="url(#paint3_linear_40_6803)"/>
<path d="M67.3683 287.162C69.4588 289.385 72.9518 289.495 75.1701 287.409C77.3885 285.323 77.4921 281.83 75.4017 279.607C73.3112 277.384 69.8182 277.273 67.5998 279.359C65.3815 281.445 65.2778 284.939 67.3683 287.162Z" fill="url(#paint4_linear_40_6803)"/>
<defs>
<linearGradient id="paint0_linear_40_6803" x1="168.067" y1="149.749" x2="247.748" y2="351.833" gradientUnits="userSpaceOnUse">
<stop stop-color="#282D54"/>
<stop offset="1" stop-color="#1E223E" stop-opacity="0"/>
</linearGradient>
<linearGradient id="paint1_linear_40_6803" x1="168.067" y1="149.749" x2="247.748" y2="351.833" gradientUnits="userSpaceOnUse">
<stop stop-color="#282D54"/>
<stop offset="1" stop-color="#1E223E" stop-opacity="0"/>
</linearGradient>
<linearGradient id="paint2_linear_40_6803" x1="168.067" y1="149.749" x2="247.748" y2="351.833" gradientUnits="userSpaceOnUse">
<stop stop-color="#282D54"/>
<stop offset="1" stop-color="#1E223E" stop-opacity="0"/>
</linearGradient>
<linearGradient id="paint3_linear_40_6803" x1="168.067" y1="149.749" x2="247.748" y2="351.833" gradientUnits="userSpaceOnUse">
<stop stop-color="#282D54"/>
<stop offset="1" stop-color="#1E223E" stop-opacity="0"/>
</linearGradient>
<linearGradient id="paint4_linear_40_6803" x1="168.067" y1="149.749" x2="247.748" y2="351.833" gradientUnits="userSpaceOnUse">
<stop stop-color="#282D54"/>
<stop offset="1" stop-color="#1E223E" stop-opacity="0"/>
</linearGradient>
</defs>
</svg>
