<svg width="490" height="491" viewBox="0 0 490 491" fill="none" xmlns="http://www.w3.org/2000/svg">
<path d="M220.459 229.959C222.001 231.69 221.844 234.269 220.102 235.821C218.609 237.151 216.484 237.27 214.789 236.119L186.922 260.943L185.59 284.747L103.481 357.891L102.011 382.04L-15.9276 487.101L-45.4793 485.488L-46.3502 486.264L-47.1211 485.398L-61.6625 484.604L-328.392 722.212L-333.189 800.988L-202.312 684.401L-157.985 686.821L25.3918 523.466L65.4978 525.655L163.282 438.547L164.61 416.743C162.762 416.172 161.455 414.454 161.693 412.467C161.836 410.123 163.827 408.349 166.172 408.477C168.517 408.605 170.279 410.584 170.137 412.928C170.008 415.038 168.501 416.602 166.61 416.734L165.115 439.353L66.2116 527.458L26.1056 525.269L-157.395 688.735L-201.723 686.315L-332.102 802.459L-333.203 801.223L-335.188 833.812L-208.541 720.992L-157.881 723.758L27.735 558.408L69.0137 560.661L69.5113 560.218L69.9518 560.713L84.4932 561.506L245.228 418.321C244.389 416.629 244.642 414.408 246.135 413.078C247.877 411.526 250.457 411.667 251.999 413.398C253.54 415.129 253.383 417.708 251.642 419.259C250.149 420.589 248.024 420.709 246.329 419.557L185.369 473.861L185.838 473.887L182.412 530.156L109.882 594.766L108.834 621.643L-27.3922 742.996L-58.4755 741.417L-81.3666 761.809L-152.307 757.818L-152.207 756.177L-191.271 790.976L-227.859 788.978L-387.598 931.277L-343.271 933.697L-241.381 842.932C-242.219 841.239 -241.966 839.018 -240.473 837.689C-238.732 836.137 -236.152 836.278 -234.61 838.009C-233.068 839.739 -233.225 842.318 -234.967 843.87C-236.46 845.2 -238.585 845.319 -240.28 844.168L-342.791 935.487L-389.933 932.914L-440.443 977.909L-364.452 982.057L-156.319 796.648L-65.7872 801.59L147.945 611.193C147.107 609.501 147.359 607.28 148.852 605.95C150.594 604.399 153.174 604.54 154.716 606.27C156.258 608.001 156.101 610.58 154.359 612.132C152.866 613.462 150.741 613.581 149.046 612.43L-65.308 803.38L-92.7489 801.882L-231.339 925.341L-292.788 921.986L-292.688 920.345L-363.849 983.737L-481.118 977.335L-481.004 975.459L-441.601 977.61L-442.372 976.745L-228.889 786.57L-192.301 788.567L-93.8948 700.905L-44.6418 703.594L26.3948 640.313C25.5566 638.621 25.8095 636.4 27.3024 635.07C29.0441 633.518 31.6241 633.659 33.1659 635.39C34.7077 637.121 34.5507 639.7 32.809 641.251C31.3161 642.581 29.191 642.701 27.4961 641.549L-44.1626 705.384L-93.4155 702.696L-152.509 755.337L-82.3821 759.166L-59.4912 738.774L-27.9816 741.082L107 620.838L108.614 594.344L181.143 529.734L184.441 475.575L85.413 563.791L69.699 562.933L-41.5213 662.011L-82.5654 659.77L-82.5511 659.535L-157.196 726.03L-207.856 723.264L-335.249 836.749L-335.849 846.596L-543.858 1031.89C-543.02 1033.59 -543.273 1035.81 -544.765 1037.14C-546.507 1038.69 -549.087 1038.55 -550.629 1036.82C-552.171 1035.09 -552.014 1032.51 -550.272 1030.96C-548.779 1029.63 -546.654 1029.51 -544.959 1030.66L-337.572 845.914L-330.005 721.654L-62.2804 483.159L-46.0973 484.043L37.1313 409.901L40.1437 360.432L146.885 265.344L149.398 224.081C147.55 223.509 146.243 221.791 146.357 219.916C146.5 217.571 148.49 215.798 150.836 215.926C153.181 216.054 154.943 218.032 154.801 220.377C154.672 222.487 153.165 224.051 151.384 224.307L148.815 266.508L42.0731 361.595L38.979 410.473L-43.5031 483.949L-16.5312 485.422L100.163 381.468L101.633 357.32L183.742 284.175L185.184 260.496L213.674 235.117C212.835 233.425 213.088 231.204 214.581 229.874C216.337 228.088 218.917 228.229 220.459 229.959ZM-155.509 798.809L-292.108 920.494L-231.598 923.798L-94.9984 802.112L-155.509 798.809ZM28.5447 560.569L-80.685 657.873L-41.9863 659.986L67.2435 562.682L28.5447 560.569Z" fill="url(#paint0_linear_24_4647)" fill-opacity="0.5"/>
<path d="M-583.234 996.459L-396.871 830.444L-388.405 691.414L-90.3248 425.878L-88.0119 387.897L-6.77387 315.529L-6.48835 310.839C-4.5835 310.473 -3.07636 308.909 -3.07228 306.909C-2.92949 304.565 -4.69157 302.587 -7.03696 302.459C-9.38234 302.331 -11.3728 304.104 -11.5156 306.448C-11.6441 308.559 -10.3368 310.277 -8.47477 310.613L-8.71752 314.599L-89.9556 386.968L-92.2684 424.949L-390.349 690.484L-398.705 829.639L-584.445 995.099C-586.03 994.072 -588.265 994.068 -589.758 995.398C-591.5 996.949 -591.657 999.528 -590.115 1001.26C-588.573 1002.99 -585.993 1003.13 -584.251 1001.58C-582.648 1000.37 -582.285 998.275 -583.234 996.459Z" fill="url(#paint1_linear_24_4647)" fill-opacity="0.5"/>
<path d="M43.7761 304.645L-59.4821 396.629L-61.4951 429.687L-359.451 695.112L-367.831 832.735L-547.6 992.877C-549.185 991.849 -551.42 991.845 -552.913 993.175C-554.655 994.726 -554.812 997.305 -553.27 999.036C-551.728 1000.77 -549.148 1000.91 -547.406 999.356C-545.914 998.026 -545.551 995.929 -546.499 994.113L-366.108 833.418L-357.727 695.794L-59.6473 430.258L-57.6343 397.201L45.6239 305.216L47.2229 278.957C49.1277 278.591 50.6348 277.027 50.6389 275.027C50.7817 272.683 49.0196 270.705 46.6742 270.577C44.3289 270.449 42.3384 272.222 42.1956 274.566C42.0671 276.677 43.3744 278.395 45.2364 278.731L43.7761 304.645Z" fill="url(#paint2_linear_24_4647)" fill-opacity="0.5"/>
<path d="M211.31 277.8C211.181 279.91 212.489 281.628 214.226 282.076L213.455 294.736L124.504 373.976L121.249 427.431L41.628 498.359L3.16375 496.259L-145.006 628.251L-181.828 626.241L-329.748 758.011L-328.537 759.371L-181.239 628.155L-144.416 630.165L3.75315 498.173L42.2174 500.273L122.958 428.348L126.213 374.892L215.164 295.653L215.992 282.055C217.897 281.688 219.404 280.124 219.519 278.248C219.661 275.904 217.899 273.926 215.554 273.798C213.553 273.806 211.563 275.579 211.31 277.8Z" fill="url(#paint3_linear_24_4647)" fill-opacity="0.5"/>
<path d="M-415.575 820.72C-415.447 818.61 -416.754 816.892 -418.492 816.444L-409.611 670.614L-208.444 491.411L-206.945 466.794L-206.505 467.288L11.4571 273.124L12.1709 261.401C14.0757 261.034 15.5829 259.47 15.587 257.471C15.7297 255.126 13.9677 253.148 11.6223 253.02C9.2769 252.892 7.28637 254.665 7.1436 257.01C7.01512 259.12 8.32243 260.838 10.0601 261.286L9.38902 272.305L-206.831 464.918L-204.518 426.937L-44.157 284.084C-42.5724 285.111 -40.3372 285.116 -38.8443 283.786C-37.1026 282.234 -36.9455 279.655 -38.4873 277.924C-40.0292 276.194 -42.6091 276.053 -44.3508 277.604C-45.8437 278.934 -46.2067 281.031 -45.2583 282.847L-206.117 426.144L-210.058 490.853L-411.224 670.056L-420.148 816.589C-422.053 816.955 -423.56 818.52 -423.564 820.519C-423.707 822.864 -421.944 824.842 -419.599 824.97C-417.708 824.838 -415.718 823.064 -415.575 820.72Z" fill="url(#paint4_linear_24_4647)" fill-opacity="0.5"/>
<path d="M396.046 374.215C395.918 376.325 394.176 377.877 392.065 377.762C390.189 377.659 388.853 376.41 388.608 374.633L378.758 374.095L186.548 545.319L220.321 547.162L362.892 420.157C362.04 418.7 362.279 416.713 363.647 415.494C365.14 414.164 367.61 414.181 369.041 415.789C370.363 417.272 370.33 419.74 368.713 421.181C367.345 422.4 365.344 422.408 363.994 421.394L220.925 548.842L163.463 545.705L-15.4345 705.071L-35.1357 703.995L-33.394 702.444L-16.0382 703.391L162.86 544.025L184.906 545.229L184.686 544.982L378.388 372.428L388.943 373.004C389.512 371.389 390.99 370.293 392.756 370.272C394.633 370.374 396.175 372.105 396.046 374.215Z" fill="url(#paint5_linear_24_4647)" fill-opacity="0.5"/>
<path d="M-321.493 823.386L-155.906 675.878L-32.305 682.626L232.683 446.57L266.456 448.414L338.613 384.135L342.834 384.366C343.403 382.75 344.882 381.655 346.648 381.634C348.759 381.749 350.301 383.48 350.172 385.59C350.044 387.7 348.302 389.251 346.191 389.136C344.315 389.034 342.979 387.785 342.734 386.007L339.216 385.815L267.06 450.093L233.287 448.249L-31.7013 684.306L-155.303 677.558L-320.392 824.622C-319.539 826.08 -319.778 828.067 -321.146 829.286C-322.639 830.615 -325.109 830.598 -326.54 828.991C-327.862 827.508 -327.829 825.039 -326.212 823.599C-324.734 822.503 -322.843 822.371 -321.493 823.386Z" fill="url(#paint6_linear_24_4647)" fill-opacity="0.5"/>
<path d="M353.741 340.502L262.053 422.18L232.736 420.58L-32.252 656.636L-154.805 650.063L-314.544 792.362C-313.692 793.82 -313.93 795.806 -315.299 797.025C-316.792 798.355 -319.262 798.338 -320.693 796.731C-322.125 795.123 -321.982 792.779 -320.365 791.338C-318.996 790.119 -316.996 790.111 -315.646 791.125L-155.284 648.273L-32.8556 654.956L232.132 418.9L261.449 420.5L353.138 338.823L376.357 340.09C376.926 338.475 378.405 337.379 380.171 337.358C382.282 337.473 383.823 339.204 383.695 341.314C383.566 343.424 381.825 344.976 379.714 344.861C377.838 344.758 376.502 343.509 376.257 341.732L353.741 340.502Z" fill="url(#paint7_linear_24_4647)" fill-opacity="0.5"/>
<path d="M437.29 197.338C435.922 198.557 433.921 198.565 432.571 197.55L407.316 220.048L386.208 218.895L313.181 283.949L291.603 282.771L187.723 375.31L186.502 399.237L259.777 333.961L303.871 336.368L398.793 251.809L436.32 253.858C436.889 252.242 438.367 251.147 440.133 251.126C442.244 251.241 443.786 252.972 443.658 255.082C443.529 257.192 441.787 258.743 439.676 258.628C437.8 258.526 436.464 257.277 436.22 255.499L399.397 253.489L304.474 338.048L260.381 335.641L186.359 401.581L185.488 415.883L-52.628 628.001L-163.095 621.971L-347.467 786.212C-346.615 787.67 -346.853 789.657 -348.222 790.876C-349.715 792.206 -352.184 792.189 -353.616 790.581C-354.938 789.098 -354.905 786.63 -353.288 785.189C-351.919 783.97 -349.919 783.962 -348.568 784.976L-163.699 620.291L-155.021 620.765L-41.5616 519.693L-38.8204 474.678L27.4888 415.608L27.2542 415.596L29.4672 379.255L128.371 291.15L129.213 277.317L217.169 198.964L169.089 196.339L104.646 253.747L80.9578 252.453L-38.971 359.288L-40.6556 386.954L-61.0584 405.129L-64.8561 467.493L-12.2318 420.615L-9.57625 377.006L53.996 320.375C53.1435 318.917 53.3821 316.931 54.7505 315.712C56.2434 314.382 58.7132 314.399 60.1449 316.006C61.4665 317.49 61.4338 319.958 59.8165 321.398C58.4481 322.617 56.4474 322.626 55.0973 321.611L-7.97732 377.799L-10.6329 421.408L-98.0913 499.317L-100.061 531.672L-289.783 700.679L-290.444 699.937L-292.585 735.105L-294.227 735.016L-287.874 630.684L-224.675 574.385L-226.316 574.296L-222.99 519.668L-99.8266 409.952L-98.3418 385.569L92.126 215.896C91.2735 214.438 91.5122 212.452 92.8807 211.233C94.3736 209.903 96.8433 209.92 98.275 211.527C99.7067 213.135 99.564 215.479 97.9467 216.92C96.5782 218.139 94.5775 218.147 93.2273 217.133L-96.494 386.14L-101.391 466.557L-286.385 631.353L-290.497 698.876L-245.586 658.868L-243.044 617.135L-151.978 536.012C-152.831 534.554 -152.592 532.568 -151.223 531.349C-149.73 530.019 -147.261 530.036 -145.829 531.643C-144.507 533.127 -144.54 535.595 -146.157 537.035C-147.526 538.255 -149.527 538.263 -150.877 537.248L-241.445 617.929L-243.844 657.317L-101.895 530.866L-99.9247 498.511L-65.2151 467.591L-66.8569 467.502L-63.0163 404.434L-42.6135 386.259L-40.9288 358.593L80.1197 250.761L103.808 252.054L168.251 194.647L218.442 197.387L218.414 197.856L272.78 149.426C271.927 147.968 272.166 145.981 273.534 144.762C275.027 143.432 277.497 143.45 278.929 145.057C280.25 146.54 280.218 149.008 278.6 150.449C277.232 151.668 275.231 151.677 273.881 150.662L130.937 277.999L130.152 290.894L130.592 291.389L130.094 291.832L127.867 328.407L-37.2215 475.471L-39.9627 520.486L-152.676 620.893L-123.593 622.48L-124.584 621.368L-8.63652 518.079L-6.23801 478.691L156.736 333.511L158.906 297.874L246.862 219.521L267.032 220.623C267.601 219.007 269.08 217.912 270.846 217.89C272.957 218.006 274.499 219.736 274.37 221.846C274.242 223.957 272.5 225.508 270.389 225.393C268.513 225.29 267.177 224.041 266.932 222.264L247.466 221.201L160.505 298.667L158.335 334.304L-4.51462 479.373L-6.91318 518.761L-123.234 622.382L-53.1073 626.211L183.764 415.201L184.55 402.306L183.889 401.564L184.635 400.899L186.234 374.641L291.11 281.215L312.687 282.393L385.715 217.339L406.823 218.492L431.58 196.438C430.728 194.98 430.966 192.993 432.335 191.774C433.827 190.444 436.297 190.462 437.729 192.069C439.051 193.552 438.783 196.008 437.29 197.338ZM-99.7205 412.075L-221.142 520.239L-224.426 574.164L-103.004 465.999L-99.7205 412.075ZM128.228 293.494L31.0661 380.048L29.0918 414.402L126.254 327.848L128.228 293.494Z" fill="url(#paint8_linear_24_4647)" fill-opacity="0.5"/>
<path d="M394.466 195.353C392.59 195.25 391.254 194.001 391.009 192.224L379.751 191.609L300.628 262.093L253.017 259.494L182.229 322.553L180.145 356.783L48.5215 474.036L46.5227 506.859L-84.8516 623.89L-85.9529 622.654L44.9238 506.066L46.9225 473.243L178.546 355.99L180.63 321.76L252.413 257.815L300.024 260.414L379.148 189.929L391.109 190.582C391.678 188.967 393.157 187.871 394.923 187.85C397.034 187.965 398.575 189.696 398.447 191.806C398.333 193.682 396.467 195.344 394.466 195.353Z" fill="url(#paint9_linear_24_4647)" fill-opacity="0.5"/>
<circle cx="114.5" cy="504" r="198" fill="#FFBB05"/>
<path d="M266.5 313.552L180.877 264L95.255 313.552L180.877 363.005L266.5 313.552Z" fill="#9387C1"/>
<path d="M180.877 457.163L95.255 407.611V313.552L180.877 363.005V457.163Z" fill="url(#paint10_linear_24_4647)"/>
<path d="M266.5 407.611L180.877 457.163V363.005L266.5 313.552V407.611Z" fill="#42376F"/>
<path d="M143.745 384.467L58.1224 335.015L-27.5001 384.467L58.1224 434.019L143.745 384.467Z" fill="url(#paint11_linear_24_4647)"/>
<path d="M58.1224 528.078L-27.5001 478.625V384.467L58.1224 434.019V528.078Z" fill="url(#paint12_linear_24_4647)"/>
<path d="M143.745 478.625L58.1223 528.078V434.019L143.745 384.467V478.625Z" fill="#42376F"/>
<path d="M265.414 454.888L179.791 405.336L94.1687 454.888L179.791 504.341L265.414 454.888Z" fill="#9387C1"/>
<path d="M179.791 598.499L94.1687 548.947V454.888L179.791 504.341V598.499Z" fill="url(#paint13_linear_24_4647)"/>
<path d="M265.414 548.947L179.791 598.499V504.341L265.414 454.888V548.947Z" fill="#42376F"/>
<g filter="url(#filter0_d_24_4647)">
<path d="M336.5 357H332.5C331.948 357 331.5 357.448 331.5 358V362C331.5 362.553 331.948 363 332.5 363H336.5C337.052 363 337.5 362.553 337.5 362V358C337.5 357.448 337.052 357 336.5 357Z" fill="white"/>
</g>
<g filter="url(#filter1_d_24_4647)">
<path d="M393.833 443H385.167C383.97 443 383 443.971 383 445.167V453.834C383 455.03 383.97 456 385.167 456H393.833C395.03 456 396 455.03 396 453.834V445.167C396 443.971 395.03 443 393.833 443Z" fill="white"/>
</g>
<g filter="url(#filter2_d_24_4647)">
<path d="M355.5 130H351.5C350.948 130 350.5 130.448 350.5 131V135C350.5 135.553 350.948 136 351.5 136H355.5C356.052 136 356.5 135.553 356.5 135V131C356.5 130.448 356.052 130 355.5 130Z" fill="white"/>
</g>
<g filter="url(#filter3_d_24_4647)">
<path d="M267.5 257H258.5C257.395 257 256.5 257.896 256.5 259V268C256.5 269.105 257.395 270 258.5 270H267.5C268.604 270 269.5 269.105 269.5 268V259C269.5 257.896 268.604 257 267.5 257Z" fill="#FDB51A"/>
</g>
<g filter="url(#filter4_d_24_4647)">
<path d="M430.423 328H425.577C424.982 328 424.5 328.483 424.5 329.077V333.924C424.5 334.518 424.982 335 425.577 335H430.423C431.018 335 431.5 334.518 431.5 333.924V329.077C431.5 328.483 431.018 328 430.423 328Z" fill="#FDB51A"/>
</g>
<g filter="url(#filter5_d_24_4647)">
<path d="M61.4999 251H52.4999C51.3953 251 50.4999 251.896 50.4999 253V262C50.4999 263.105 51.3953 264 52.4999 264H61.4999C62.6044 264 63.4999 263.105 63.4999 262V253C63.4999 251.896 62.6044 251 61.4999 251Z" fill="#FDB51A"/>
</g>
<defs>
<filter id="filter0_d_24_4647" x="311.5" y="337" width="46" height="46" filterUnits="userSpaceOnUse" color-interpolation-filters="sRGB">
<feFlood flood-opacity="0" result="BackgroundImageFix"/>
<feColorMatrix in="SourceAlpha" type="matrix" values="0 0 0 0 0 0 0 0 0 0 0 0 0 0 0 0 0 0 127 0" result="hardAlpha"/>
<feOffset/>
<feGaussianBlur stdDeviation="10"/>
<feColorMatrix type="matrix" values="0 0 0 0 1 0 0 0 0 1 0 0 0 0 1 0 0 0 1 0"/>
<feBlend mode="normal" in2="BackgroundImageFix" result="effect1_dropShadow_24_4647"/>
<feBlend mode="normal" in="SourceGraphic" in2="effect1_dropShadow_24_4647" result="shape"/>
</filter>
<filter id="filter1_d_24_4647" x="363" y="423" width="53" height="53" filterUnits="userSpaceOnUse" color-interpolation-filters="sRGB">
<feFlood flood-opacity="0" result="BackgroundImageFix"/>
<feColorMatrix in="SourceAlpha" type="matrix" values="0 0 0 0 0 0 0 0 0 0 0 0 0 0 0 0 0 0 127 0" result="hardAlpha"/>
<feOffset/>
<feGaussianBlur stdDeviation="10"/>
<feColorMatrix type="matrix" values="0 0 0 0 1 0 0 0 0 1 0 0 0 0 1 0 0 0 1 0"/>
<feBlend mode="normal" in2="BackgroundImageFix" result="effect1_dropShadow_24_4647"/>
<feBlend mode="normal" in="SourceGraphic" in2="effect1_dropShadow_24_4647" result="shape"/>
</filter>
<filter id="filter2_d_24_4647" x="330.5" y="110" width="46" height="46" filterUnits="userSpaceOnUse" color-interpolation-filters="sRGB">
<feFlood flood-opacity="0" result="BackgroundImageFix"/>
<feColorMatrix in="SourceAlpha" type="matrix" values="0 0 0 0 0 0 0 0 0 0 0 0 0 0 0 0 0 0 127 0" result="hardAlpha"/>
<feOffset/>
<feGaussianBlur stdDeviation="10"/>
<feColorMatrix type="matrix" values="0 0 0 0 1 0 0 0 0 1 0 0 0 0 1 0 0 0 1 0"/>
<feBlend mode="normal" in2="BackgroundImageFix" result="effect1_dropShadow_24_4647"/>
<feBlend mode="normal" in="SourceGraphic" in2="effect1_dropShadow_24_4647" result="shape"/>
</filter>
<filter id="filter3_d_24_4647" x="236.5" y="237" width="53" height="53" filterUnits="userSpaceOnUse" color-interpolation-filters="sRGB">
<feFlood flood-opacity="0" result="BackgroundImageFix"/>
<feColorMatrix in="SourceAlpha" type="matrix" values="0 0 0 0 0 0 0 0 0 0 0 0 0 0 0 0 0 0 127 0" result="hardAlpha"/>
<feOffset/>
<feGaussianBlur stdDeviation="10"/>
<feColorMatrix type="matrix" values="0 0 0 0 0.992157 0 0 0 0 0.713726 0 0 0 0 0.105882 0 0 0 1 0"/>
<feBlend mode="normal" in2="BackgroundImageFix" result="effect1_dropShadow_24_4647"/>
<feBlend mode="normal" in="SourceGraphic" in2="effect1_dropShadow_24_4647" result="shape"/>
</filter>
<filter id="filter4_d_24_4647" x="404.5" y="308" width="47" height="47" filterUnits="userSpaceOnUse" color-interpolation-filters="sRGB">
<feFlood flood-opacity="0" result="BackgroundImageFix"/>
<feColorMatrix in="SourceAlpha" type="matrix" values="0 0 0 0 0 0 0 0 0 0 0 0 0 0 0 0 0 0 127 0" result="hardAlpha"/>
<feOffset/>
<feGaussianBlur stdDeviation="10"/>
<feColorMatrix type="matrix" values="0 0 0 0 0.992157 0 0 0 0 0.713726 0 0 0 0 0.105882 0 0 0 1 0"/>
<feBlend mode="normal" in2="BackgroundImageFix" result="effect1_dropShadow_24_4647"/>
<feBlend mode="normal" in="SourceGraphic" in2="effect1_dropShadow_24_4647" result="shape"/>
</filter>
<filter id="filter5_d_24_4647" x="30.4999" y="231" width="53" height="53" filterUnits="userSpaceOnUse" color-interpolation-filters="sRGB">
<feFlood flood-opacity="0" result="BackgroundImageFix"/>
<feColorMatrix in="SourceAlpha" type="matrix" values="0 0 0 0 0 0 0 0 0 0 0 0 0 0 0 0 0 0 127 0" result="hardAlpha"/>
<feOffset/>
<feGaussianBlur stdDeviation="10"/>
<feColorMatrix type="matrix" values="0 0 0 0 0.992157 0 0 0 0 0.713726 0 0 0 0 0.105882 0 0 0 1 0"/>
<feBlend mode="normal" in2="BackgroundImageFix" result="effect1_dropShadow_24_4647"/>
<feBlend mode="normal" in="SourceGraphic" in2="effect1_dropShadow_24_4647" result="shape"/>
</filter>
<linearGradient id="paint0_linear_24_4647" x1="59.4999" y1="177.5" x2="152.075" y2="388.281" gradientUnits="userSpaceOnUse">
<stop stop-color="#272F54" stop-opacity="0.14"/>
<stop offset="0.987338" stop-color="#795FB0"/>
</linearGradient>
<linearGradient id="paint1_linear_24_4647" x1="59.4999" y1="177.5" x2="152.075" y2="388.281" gradientUnits="userSpaceOnUse">
<stop stop-color="#272F54" stop-opacity="0.14"/>
<stop offset="0.987338" stop-color="#795FB0"/>
</linearGradient>
<linearGradient id="paint2_linear_24_4647" x1="59.4999" y1="177.5" x2="152.075" y2="388.281" gradientUnits="userSpaceOnUse">
<stop stop-color="#272F54" stop-opacity="0.14"/>
<stop offset="0.987338" stop-color="#795FB0"/>
</linearGradient>
<linearGradient id="paint3_linear_24_4647" x1="59.4999" y1="177.5" x2="152.075" y2="388.281" gradientUnits="userSpaceOnUse">
<stop stop-color="#272F54" stop-opacity="0.14"/>
<stop offset="0.987338" stop-color="#795FB0"/>
</linearGradient>
<linearGradient id="paint4_linear_24_4647" x1="59.4999" y1="177.5" x2="152.075" y2="388.281" gradientUnits="userSpaceOnUse">
<stop stop-color="#272F54" stop-opacity="0.14"/>
<stop offset="0.987338" stop-color="#795FB0"/>
</linearGradient>
<linearGradient id="paint5_linear_24_4647" x1="59.4999" y1="177.5" x2="152.075" y2="388.281" gradientUnits="userSpaceOnUse">
<stop stop-color="#272F54" stop-opacity="0.14"/>
<stop offset="0.987338" stop-color="#795FB0"/>
</linearGradient>
<linearGradient id="paint6_linear_24_4647" x1="59.4999" y1="177.5" x2="152.075" y2="388.281" gradientUnits="userSpaceOnUse">
<stop stop-color="#272F54" stop-opacity="0.14"/>
<stop offset="0.987338" stop-color="#795FB0"/>
</linearGradient>
<linearGradient id="paint7_linear_24_4647" x1="59.4999" y1="177.5" x2="152.075" y2="388.281" gradientUnits="userSpaceOnUse">
<stop stop-color="#272F54" stop-opacity="0.14"/>
<stop offset="0.987338" stop-color="#795FB0"/>
</linearGradient>
<linearGradient id="paint8_linear_24_4647" x1="59.4999" y1="177.5" x2="152.075" y2="388.281" gradientUnits="userSpaceOnUse">
<stop stop-color="#272F54" stop-opacity="0.14"/>
<stop offset="0.987338" stop-color="#795FB0"/>
</linearGradient>
<linearGradient id="paint9_linear_24_4647" x1="59.4999" y1="177.5" x2="152.075" y2="388.281" gradientUnits="userSpaceOnUse">
<stop stop-color="#272F54" stop-opacity="0.14"/>
<stop offset="0.987338" stop-color="#795FB0"/>
</linearGradient>
<linearGradient id="paint10_linear_24_4647" x1="158.361" y1="350.048" x2="117.581" y2="420.614" gradientUnits="userSpaceOnUse">
<stop stop-color="#313355"/>
<stop offset="1" stop-color="#0E111E"/>
</linearGradient>
<linearGradient id="paint11_linear_24_4647" x1="-27.5001" y1="384.517" x2="143.745" y2="384.517" gradientUnits="userSpaceOnUse">
<stop stop-color="#373F67"/>
<stop offset="1" stop-color="#897DBD"/>
</linearGradient>
<linearGradient id="paint12_linear_24_4647" x1="35.6057" y1="420.963" x2="-5.17389" y2="491.529" gradientUnits="userSpaceOnUse">
<stop stop-color="#313355"/>
<stop offset="1" stop-color="#0E111E"/>
</linearGradient>
<linearGradient id="paint13_linear_24_4647" x1="157.373" y1="491.384" x2="116.495" y2="561.949" gradientUnits="userSpaceOnUse">
<stop stop-color="#313355"/>
<stop offset="1" stop-color="#161B2F"/>
</linearGradient>
</defs>
</svg>
