<svg width="41" height="42" viewBox="0 0 41 42" fill="none" xmlns="http://www.w3.org/2000/svg">
<path d="M33.2999 4.23926H7.69995C5.49195 4.23926 3.69995 6.07606 3.69995 8.33926V34.5793C3.69995 36.8425 5.49195 38.6793 7.69995 38.6793H33.2999C35.5079 38.6793 37.2999 36.8425 37.2999 34.5793V8.33926C37.2999 6.07606 35.5079 4.23926 33.2999 4.23926ZM14.1 17.3593V32.9393H9.29995V17.3593H14.1ZM9.29995 12.8247C9.29995 11.6767 10.26 10.7993 11.7 10.7993C13.14 10.7993 14.044 11.6767 14.1 12.8247C14.1 13.9727 13.204 14.8993 11.7 14.8993C10.26 14.8993 9.29995 13.9727 9.29995 12.8247ZM31.6999 32.9393H26.9C26.9 32.9393 26.9 25.3461 26.9 24.7393C26.9 23.0993 26.0999 21.4593 24.1 21.4265H24.0359C22.1 21.4265 21.2999 23.1157 21.2999 24.7393C21.2999 25.4855 21.2999 32.9393 21.2999 32.9393H16.5V17.3593H21.2999V19.4585C21.2999 19.4585 22.844 17.3593 25.948 17.3593C29.1239 17.3593 31.6999 19.5979 31.6999 24.1325V32.9393Z" fill="#FFBB05"/>
</svg>
