<svg width="210" height="34" viewBox="0 0 210 34" fill="none" xmlns="http://www.w3.org/2000/svg">
<path fill-rule="evenodd" clip-rule="evenodd" d="M35.601 15.7133C35.601 15.5439 35.5423 15.4874 35.3659 15.4874C35.3071 15.4874 35.2484 15.4874 35.1896 15.4874C31.4865 15.4874 27.7834 15.4874 24.0803 15.4874C23.7276 15.4874 23.4925 15.431 23.3162 15.0358C23.0223 14.2453 22.6696 13.4549 22.3757 12.608C22.0818 11.9305 21.8467 11.253 21.5528 10.5755C21.2589 9.84153 20.965 9.10756 20.6711 8.43006C20.5536 8.20422 20.4948 7.97838 20.3772 7.75255C20.3185 7.80901 20.2597 7.86547 20.2597 7.92193C20.1421 8.26068 20.0246 8.59943 19.8482 8.99465C19.4955 9.95445 19.1429 10.8578 18.7902 11.8176C18.7902 11.8741 18.7314 11.987 18.7902 12.0999C18.9665 12.5516 19.1429 13.0597 19.3192 13.5114C19.5543 14.076 19.7894 14.6405 20.0246 15.2616C20.1421 15.4874 20.0833 15.5439 19.8482 15.5439C19.0841 15.5439 18.3787 15.5439 17.6146 15.5439C17.4383 15.5439 17.3795 15.6003 17.3207 15.7133C17.2032 16.052 17.0856 16.3908 16.9093 16.7295C16.7329 17.2377 16.4978 17.8022 16.3215 18.3104C16.2627 18.4798 16.3215 18.4797 16.439 18.4797C16.4978 18.4797 16.4978 18.4797 16.5566 18.4797C18.0848 18.4797 19.5543 18.4797 21.0826 18.4797C21.2589 18.4797 21.3177 18.5362 21.3765 18.6491C21.4353 18.875 21.5528 19.1008 21.6704 19.3266C22.023 20.23 22.3757 21.1333 22.7284 22.0367C23.0811 22.8835 23.375 23.7304 23.7276 24.5773C23.904 24.9161 23.7864 24.9161 24.1979 24.9161C25.0796 24.9161 26.02 24.9161 26.9017 24.9161C26.9605 24.9161 27.0193 24.9161 27.1368 24.9161C27.1368 24.8596 27.1368 24.8032 27.1368 24.8032C26.9605 24.3515 26.7842 23.8998 26.6078 23.4481C26.1376 22.2625 25.7261 21.3027 25.3147 20.1735C25.1383 19.7218 24.962 19.2702 24.7857 18.762C24.6681 18.4797 24.7269 18.4797 25.0208 18.4797C27.372 18.4797 29.7819 18.4797 32.1331 18.4797C32.427 18.4797 32.427 18.4797 32.3682 18.762C32.2506 19.496 32.0743 20.1735 31.8979 20.9075C31.6628 21.8108 31.3102 22.6577 30.8399 23.4481C30.4285 24.2386 29.8995 24.9725 29.3704 25.65C28.43 26.7792 27.372 27.739 26.1376 28.5294C25.3735 29.0376 24.6093 29.4328 23.7276 29.7715C22.9047 30.1103 22.0818 30.3926 21.2001 30.562C20.6123 30.6749 20.0246 30.7878 19.4368 30.8443C17.7322 31.0136 16.0864 30.9007 14.4405 30.5055C13.7352 30.3361 12.9711 30.1103 12.2657 29.828C10.9726 29.3199 9.7382 28.5859 8.68018 27.739C8.3275 27.4567 7.73971 26.9486 7.73971 26.9486C7.73971 26.9486 6.9168 27.739 6.44657 28.1907C6.15267 28.473 5.85878 28.6988 5.5061 29.0376C6.21145 29.6022 6.79925 30.1103 7.44582 30.6184C8.44506 31.3524 9.50309 31.917 10.6199 32.4251C11.0901 32.6509 11.5604 32.8203 12.0306 32.9897C12.442 33.1591 12.8535 33.272 13.3237 33.3849C13.8527 33.4978 14.3818 33.6108 14.9108 33.7237C15.4398 33.8366 16.0276 33.893 16.5566 33.9495C17.6734 34.006 18.7902 34.0624 19.8482 33.8366C20.5536 33.7237 21.2001 33.6672 21.9055 33.4978C22.6108 33.3285 23.2574 33.1591 23.904 32.8768C24.5506 32.6509 25.1971 32.3687 25.8437 32.0864C26.4903 31.7476 27.1368 31.4089 27.7834 30.9572C28.43 30.5055 29.0765 30.0538 29.6056 29.5457C30.1934 29.0376 30.7811 28.4165 31.3102 27.8519C31.7804 27.3438 32.1918 26.7792 32.5445 26.2146C32.956 25.65 33.3086 25.029 33.6025 24.4079C33.8964 23.8434 34.1903 23.2223 34.4255 22.6013C34.7193 21.8108 34.8957 21.0204 35.072 20.23C35.2484 19.496 35.3071 18.7056 35.3659 17.9716C35.601 17.1812 35.601 16.4472 35.601 15.7133Z" fill="#FFBB05"/>
<path fill-rule="evenodd" clip-rule="evenodd" d="M30.7216 4.81672C30.1338 4.30859 29.4872 3.80046 28.8407 3.29233C28.0178 2.72774 27.1948 2.16315 26.2544 1.76794C25.4902 1.42919 24.7849 1.09043 24.0208 0.864596C23.3742 0.63876 22.6688 0.469383 21.9635 0.356465C21.3757 0.243547 20.7879 0.13063 20.1413 0.0741706C18.6131 -0.0387473 17.0848 -0.0387473 15.5566 0.187089C15.2627 0.243547 14.9688 0.300006 14.7337 0.356465C14.1459 0.469383 13.6168 0.582301 13.0291 0.751678C12.1474 1.09043 11.2069 1.42919 10.384 1.8244C9.61986 2.21961 8.85573 2.67128 8.15038 3.12295C7.20991 3.744 6.387 4.47797 5.62287 5.21194C4.91752 5.88944 4.27095 6.62341 3.74194 7.47029C3.27171 8.20426 2.80147 8.99469 2.39002 9.78511C2.09612 10.3497 1.86101 10.9143 1.62589 11.5353C1.39077 12.1564 1.27321 12.8339 1.09688 13.4549C0.979317 14.076 0.80298 14.6406 0.80298 15.2616C0.7442 16.2779 0.80298 17.2377 0.80298 18.254C0.80298 18.4233 0.861759 18.4798 1.0381 18.4798C1.80223 18.4798 2.56636 18.4798 3.27171 18.4798C3.50682 18.4798 3.8595 18.4798 4.15339 18.4798C6.56334 18.4798 8.97329 18.4798 11.3245 18.4798C11.3832 18.4798 11.5008 18.4798 11.6184 18.4798C10.7367 20.6252 9.91376 22.7707 9.03207 24.9161H9.32597C10.2077 24.9161 11.1481 24.9161 12.0298 24.9161C12.4413 24.9161 12.4413 24.9161 12.6176 24.5209C12.6764 24.4644 12.6764 24.3515 12.7352 24.2951C12.9115 23.8434 13.0878 23.3353 13.2642 22.8836C13.4405 22.4884 13.6168 22.0367 13.7344 21.6415C13.9107 21.1898 14.0871 20.7381 14.2634 20.23C14.4985 19.609 14.7337 19.0444 14.9688 18.4233C15.2627 17.6894 15.4978 17.0119 15.7917 16.2779C16.0268 15.6568 16.2619 15.0358 16.5558 14.4147C16.7321 13.9631 16.9085 13.4549 17.0848 13.0033C17.2612 12.6081 17.4375 12.1564 17.5551 11.7612C17.7314 11.3095 17.9077 10.8014 18.0841 10.3497C18.3192 9.72865 18.5543 9.1076 18.7894 8.48655C18.907 8.09134 19.0833 7.75259 19.2009 7.35738C19.3184 6.96216 19.4948 6.62341 19.6123 6.2282C19.6711 6.05882 19.6123 6.00236 19.436 6.00236C19.3772 6.00236 19.3184 6.00236 19.2597 6.00236C18.378 6.00236 17.4963 6.00236 16.6146 6.00236C16.4383 6.00236 16.3207 6.05882 16.3207 6.2282C16.2031 6.51049 16.0856 6.79279 15.968 7.07508C15.6153 7.97842 15.2627 8.88177 14.8512 9.78511C14.4985 10.632 14.1459 11.4789 13.852 12.3258C13.4993 13.2291 13.1466 14.1325 12.7939 15.0358C12.6764 15.3745 12.6764 15.3745 12.3237 15.3745C9.56108 15.3745 6.79846 15.3745 4.03584 15.3745C3.97706 15.3745 3.91828 15.3745 3.80072 15.3745C3.8595 15.0358 3.91828 14.7535 3.97706 14.4712C4.09462 13.6808 4.32973 12.9468 4.62363 12.2128C4.91752 11.5353 5.21142 10.9143 5.5641 10.2368C6.15189 9.16406 6.85724 8.26072 7.73893 7.35738C8.44428 6.62341 9.26719 5.9459 10.1489 5.38131C10.7954 4.9861 11.442 4.64735 12.0886 4.36505C12.6764 4.08276 13.2642 3.91338 13.852 3.68754C14.1459 3.57463 14.4985 3.51817 14.7924 3.40525C15.0863 3.34879 15.439 3.29233 15.7329 3.23587C16.2619 3.17941 16.8497 3.06649 17.3787 3.01004C18.2016 3.01004 19.0245 3.01004 19.8474 3.06649C20.494 3.12295 21.0818 3.23587 21.7284 3.34879C22.4337 3.51817 23.1391 3.744 23.8444 4.0263C24.6086 4.36505 25.3727 4.76026 26.1368 5.15548C26.9597 5.66361 27.6651 6.2282 28.3704 6.9057C28.4292 6.96216 28.488 7.01862 28.6055 6.9057C29.2521 6.28466 29.9575 5.60715 30.604 4.9861C30.8392 4.9861 30.8392 4.92964 30.7216 4.81672Z" fill="white"/>
<path d="M123.856 21.8579L124.972 23.1095C123.573 24.131 122.063 24.6418 120.441 24.6418C119.086 24.6418 117.814 24.2749 116.624 23.5412C115.448 22.8074 114.511 21.8075 113.811 20.5414C113.112 19.261 112.762 17.8798 112.762 16.398C112.762 14.9161 113.112 13.5421 113.811 12.2761C114.511 10.9956 115.448 9.9885 116.624 9.25476C117.814 8.52102 119.086 8.15414 120.441 8.15414C122.063 8.15414 123.573 8.65769 124.972 9.66479L123.856 10.9381C122.784 10.1899 121.646 9.81585 120.441 9.81585C118.804 9.81585 117.397 10.4633 116.222 11.7581C115.046 13.053 114.458 14.5996 114.458 16.398C114.458 18.1963 115.046 19.743 116.222 21.0378C117.397 22.3326 118.804 22.9801 120.441 22.9801C121.646 22.9801 122.784 22.606 123.856 21.8579Z" fill="white"/>
<path d="M129.139 24.6418H127.286L134.317 8.15414H135.411L142.442 24.6418H140.589L138.625 20.0883H131.103L129.139 24.6418ZM134.875 11.0675L131.795 18.4265H137.933L134.875 11.0675Z" fill="white"/>
<path d="M150.931 8.15414C151.184 8.16853 151.422 8.19011 151.645 8.21889C152.97 8.4203 154.093 9.03176 155.016 10.0532C155.938 11.0747 156.4 12.2401 156.4 13.5493C156.4 14.9736 155.857 16.2181 154.77 17.2828C153.699 18.333 152.441 18.8797 150.998 18.9229H147.003V24.6418H145.284V8.15414H150.931ZM154.681 13.5493C154.681 12.5278 154.302 11.6574 153.543 10.9381C152.784 10.2043 151.883 9.83744 150.842 9.83744H147.003V17.2612H150.842C151.883 17.2612 152.784 16.9015 153.543 16.1822C154.302 15.4484 154.681 14.5708 154.681 13.5493Z" fill="white"/>
<path d="M162.233 8.15414V24.6418H160.112V8.15414H162.233Z" fill="white"/>
<path d="M172.999 9.83744V24.6418H171.392V9.83744H165.767V8.15414H178.624V9.83744H172.999Z" fill="white"/>
<path d="M182.516 24.6418H180.663L187.694 8.15414H188.788L195.819 24.6418H193.967L192.002 20.0883H184.48L182.516 24.6418ZM188.252 11.0675L185.172 18.4265H191.31L188.252 11.0675Z" fill="white"/>
<path d="M209.777 24.6418H198.706V8.15414H200.424V22.9585H209.777V24.6418Z" fill="white"/>
<path d="M63.4152 16.2253C64.1741 16.7001 64.7619 17.2756 65.1785 17.9517C65.5952 18.6136 65.8035 19.3185 65.8035 20.0667C65.8035 21.4622 65.1413 22.6419 63.8169 23.6059C62.5074 24.5698 60.9003 25.0518 58.9956 25.0518C57.1206 25.0518 55.5284 24.5698 54.2188 23.6059C52.9093 22.6276 52.2397 21.4262 52.2099 20.0019L52.1876 19.7214H55.0224L55.0447 19.9803C55.0596 20.3832 55.2456 20.7644 55.6028 21.1241C55.9599 21.4838 56.4361 21.7787 57.0313 22.0089C57.6414 22.2247 58.2962 22.3326 58.9956 22.3326C59.7098 22.3326 60.372 22.2247 60.9822 22.0089C61.6071 21.7787 62.0908 21.4838 62.433 21.1241C62.7902 20.7644 62.9687 20.3904 62.9687 20.0019C62.9687 19.5991 62.7827 19.225 62.4107 18.8797C62.0536 18.5632 61.5625 18.297 60.9375 18.0812C60.3125 17.8654 59.6578 17.7287 58.9733 17.6712C56.9941 17.4698 55.5284 17.0597 54.576 16.4411C53.8915 15.9807 53.3558 15.4268 52.9689 14.7794C52.582 14.1176 52.3885 13.427 52.3885 12.7076C52.3885 11.456 52.9242 10.3697 53.9956 9.44897C55.067 8.51381 56.4212 7.9599 58.0581 7.78726C58.3557 7.75848 58.6682 7.74409 58.9956 7.74409C59.3229 7.74409 59.6429 7.75848 59.9554 7.78726C61.5774 7.9599 62.9167 8.50661 63.9732 9.42739C65.0446 10.3482 65.5877 11.4272 65.6026 12.6645V12.945H62.7678V12.6861C62.7381 12.0818 62.3586 11.5495 61.6295 11.0891C60.9003 10.6143 60.0223 10.3769 58.9956 10.3769C57.9688 10.3769 57.0834 10.6143 56.3394 11.0891C55.6102 11.5639 55.2456 12.1106 55.2456 12.7292C55.2456 13.1321 55.4167 13.4989 55.759 13.8298C56.4435 14.4916 57.5298 14.9089 59.0179 15.0815C60.0149 15.1966 60.8557 15.3333 61.5402 15.4916C62.2396 15.6354 62.8646 15.88 63.4152 16.2253Z" fill="#FFBB05"/>
<path d="M78.1189 7.89516L86.1098 24.9007H83.0295L80.909 20.6278H73.3198L71.2216 24.9007H68.1413L76.1323 7.89516H78.1189ZM79.659 17.887L77.1144 12.4487L74.5921 17.887H79.659Z" fill="#FFBB05"/>
<path d="M87.7375 7.89516H102.827V10.6359H96.7776L96.9785 24.9007H94.1437L93.7866 10.6359H87.7375V7.89516Z" fill="#FFBB05"/>
</svg>
