<svg width="243" height="40" viewBox="0 0 243 40" fill="none" xmlns="http://www.w3.org/2000/svg">
<path fill-rule="evenodd" clip-rule="evenodd" d="M40.4893 18.4864C40.4893 18.2871 40.421 18.2207 40.2159 18.2207C40.1476 18.2207 40.0792 18.2207 40.0109 18.2207C35.7054 18.2207 31.3999 18.2207 27.0944 18.2207C26.6843 18.2207 26.411 18.1543 26.206 17.6893C25.8643 16.7594 25.4542 15.8295 25.1125 14.8332C24.7708 14.0361 24.4974 13.239 24.1557 12.442C23.814 11.5785 23.4723 10.715 23.1306 9.91792C22.9939 9.65223 22.9256 9.38654 22.7889 9.12085C22.7205 9.18727 22.6522 9.25369 22.6522 9.32012C22.5155 9.71865 22.3788 10.1172 22.1738 10.5821C21.7638 11.7113 21.3537 12.7741 20.9437 13.9033C20.9437 13.9697 20.8753 14.1025 20.9437 14.2354C21.1487 14.7667 21.3537 15.3645 21.5587 15.8959C21.8321 16.5601 22.1055 17.2244 22.3788 17.955C22.5155 18.2207 22.4472 18.2871 22.1738 18.2871C21.2854 18.2871 20.4653 18.2871 19.5768 18.2871C19.3718 18.2871 19.3035 18.3535 19.2351 18.4864C19.0985 18.8849 18.9618 19.2835 18.7568 19.682C18.5517 20.2798 18.2784 20.944 18.0733 21.5418C18.005 21.7411 18.0733 21.7411 18.21 21.7411C18.2784 21.7411 18.2784 21.7411 18.3467 21.7411C20.1236 21.7411 21.8321 21.7411 23.609 21.7411C23.814 21.7411 23.8824 21.8075 23.9507 21.9404C24.019 22.206 24.1557 22.4717 24.2924 22.7374C24.7024 23.8002 25.1125 24.8629 25.5225 25.9257C25.9326 26.922 26.2743 27.9184 26.6843 28.9147C26.8894 29.3132 26.7527 29.3132 27.2311 29.3132C28.2562 29.3132 29.3497 29.3132 30.3748 29.3132C30.4431 29.3132 30.5115 29.3132 30.6481 29.3132C30.6481 29.2468 30.6481 29.1804 30.6481 29.1804C30.4431 28.649 30.2381 28.1176 30.0331 27.5862C29.4863 26.1914 29.008 25.0622 28.5296 23.7338C28.3245 23.2024 28.1195 22.671 27.9145 22.0732C27.7778 21.7411 27.8461 21.7411 28.1879 21.7411C30.9215 21.7411 33.7235 21.7411 36.4572 21.7411C36.7989 21.7411 36.7989 21.7411 36.7305 22.0732C36.5938 22.9367 36.3888 23.7338 36.1838 24.5972C35.9104 25.66 35.5004 26.6563 34.9536 27.5862C34.4753 28.5162 33.8602 29.3797 33.2451 30.1767C32.1517 31.5052 30.9215 32.6343 29.4863 33.5643C28.5979 34.1621 27.7095 34.627 26.6843 35.0255C25.7276 35.4241 24.7708 35.7562 23.7457 35.9555C23.0623 36.0883 22.3788 36.2211 21.6954 36.2876C19.7135 36.4868 17.8 36.354 15.8864 35.889C15.0663 35.6898 14.1779 35.4241 13.3578 35.092C11.8543 34.4942 10.4191 33.6307 9.18897 32.6343C8.77892 32.3022 8.09551 31.7044 8.09551 31.7044C8.09551 31.7044 7.13873 32.6343 6.592 33.1657C6.25029 33.4978 5.90858 33.7635 5.49854 34.1621C6.31863 34.8263 7.00204 35.4241 7.7538 36.0219C8.9156 36.8854 10.1457 37.5496 11.4442 38.1474C11.991 38.4131 12.5377 38.6124 13.0844 38.8116C13.5628 39.0109 14.0412 39.1437 14.5879 39.2766C15.203 39.4094 15.8181 39.5423 16.4331 39.6751C17.0482 39.808 17.7316 39.8744 18.3467 39.9408C19.6452 40.0072 20.9437 40.0736 22.1738 39.808C22.9939 39.6751 23.7457 39.6087 24.5658 39.4094C25.3859 39.2102 26.1376 39.0109 26.8894 38.6788C27.6411 38.4131 28.3929 38.081 29.1446 37.7489C29.8964 37.3503 30.6481 36.9518 31.3999 36.4204C32.1517 35.889 32.9034 35.3577 33.5185 34.7599C34.2019 34.1621 34.8853 33.4314 35.5004 32.7672C36.0471 32.1694 36.5255 31.5052 36.9355 30.8409C37.4139 30.1767 37.824 29.4461 38.1657 28.7154C38.5074 28.0512 38.8491 27.3206 39.1225 26.5899C39.4642 25.66 39.6692 24.7301 39.8742 23.8002C40.0792 22.9367 40.1476 22.0068 40.2159 21.1433C40.4893 20.2134 40.4893 19.3499 40.4893 18.4864Z" fill="#1B191F"/>
<path fill-rule="evenodd" clip-rule="evenodd" d="M34.8161 5.66698C34.1327 5.06918 33.381 4.47137 32.6292 3.87357C31.6724 3.20935 30.7157 2.54513 29.6222 2.08017C28.7338 1.68164 27.9137 1.28311 27.0252 1.01742C26.2735 0.751727 25.4534 0.55246 24.6333 0.419615C23.9499 0.286771 23.2664 0.153926 22.5147 0.0875037C20.7378 -0.0453409 18.9609 -0.0453409 17.1841 0.220348C16.8424 0.286771 16.5006 0.353193 16.2273 0.419615C15.5439 0.55246 14.9288 0.685304 14.2454 0.884571C13.2203 1.28311 12.1268 1.68164 11.17 2.14659C10.2816 2.61155 9.39314 3.14293 8.57305 3.67431C7.47958 4.40495 6.52281 5.26844 5.63437 6.13193C4.81427 6.929 4.06252 7.79249 3.44744 8.78882C2.90071 9.65231 2.35398 10.5822 1.87559 11.5121C1.53388 12.1764 1.26052 12.8406 0.987153 13.5712C0.713788 14.3019 0.577105 15.0989 0.372081 15.8296C0.235398 16.5602 0.0303739 17.2245 0.0303739 17.9551C-0.0379674 19.1507 0.0303739 20.2799 0.0303739 21.4755C0.0303739 21.6747 0.0987153 21.7412 0.303739 21.7412C1.19218 21.7412 2.08062 21.7412 2.90071 21.7412C3.17408 21.7412 3.58413 21.7412 3.92583 21.7412C6.72783 21.7412 9.52983 21.7412 12.2635 21.7412C12.3318 21.7412 12.4685 21.7412 12.6052 21.7412C11.5801 24.2652 10.6233 26.7893 9.59817 29.3133H9.93987C10.965 29.3133 12.0585 29.3133 13.0836 29.3133C13.562 29.3133 13.562 29.3133 13.767 28.8484C13.8353 28.7819 13.8353 28.6491 13.9037 28.5827C14.1087 28.0513 14.3137 27.4535 14.5187 26.9221C14.7238 26.4572 14.9288 25.9258 15.0655 25.4608C15.2705 24.9294 15.4755 24.3981 15.6806 23.8003C15.9539 23.0696 16.2273 22.4054 16.5006 21.6747C16.8424 20.8113 17.1157 20.0142 17.4574 19.1507C17.7308 18.4201 18.0042 17.6894 18.3459 16.9588C18.5509 16.4274 18.7559 15.8296 18.9609 15.2982C19.166 14.8333 19.371 14.3019 19.5077 13.8369C19.7127 13.3055 19.9177 12.7077 20.1227 12.1764C20.3961 11.4457 20.6695 10.7151 20.9428 9.98443C21.0795 9.51947 21.2845 9.12094 21.4212 8.65598C21.5579 8.19102 21.7629 7.79249 21.8996 7.32753C21.968 7.12827 21.8996 7.06184 21.6946 7.06184C21.6263 7.06184 21.5579 7.06184 21.4896 7.06184C20.4644 7.06184 19.4393 7.06184 18.4142 7.06184C18.2092 7.06184 18.0725 7.12827 18.0725 7.32753C17.9358 7.65965 17.7991 7.99176 17.6625 8.32387C17.2524 9.38663 16.8424 10.4494 16.364 11.5121C15.9539 12.5085 15.5439 13.5048 15.2022 14.5011C14.7921 15.5639 14.3821 16.6267 13.972 17.6894C13.8353 18.0879 13.8353 18.0879 13.4253 18.0879C10.2132 18.0879 7.0012 18.0879 3.78915 18.0879C3.72081 18.0879 3.65247 18.0879 3.51578 18.0879C3.58413 17.6894 3.65247 17.3573 3.72081 17.0252C3.85749 16.0953 4.13086 15.2318 4.47256 14.3683C4.81427 13.5712 5.15598 12.8406 5.56603 12.0435C6.24944 10.7815 7.06954 9.71874 8.09466 8.65598C8.91475 7.79249 9.87153 6.99542 10.8967 6.3312C11.6484 5.86624 12.4002 5.46771 13.1519 5.1356C13.8353 4.80349 14.5187 4.60422 15.2022 4.33853C15.5439 4.20569 15.9539 4.13926 16.2956 4.00642C16.6373 3.94 17.0474 3.87357 17.3891 3.80715C18.0042 3.74073 18.6876 3.60789 19.3026 3.54146C20.2594 3.54146 21.2162 3.54146 22.173 3.60789C22.9247 3.67431 23.6082 3.80715 24.3599 3.94C25.18 4.13926 26.0001 4.40495 26.8202 4.73706C27.7086 5.1356 28.5971 5.60055 29.4855 6.06551C30.4423 6.66331 31.2624 7.32753 32.0825 8.1246C32.1508 8.19102 32.2192 8.25745 32.3559 8.1246C33.1076 7.39396 33.9277 6.59689 34.6795 5.86624C34.9528 5.86624 34.9528 5.79982 34.8161 5.66698Z" fill="#1B191F"/>
<path d="M143.101 25.7153L144.399 27.1878C142.772 28.3896 141.016 28.9905 139.13 28.9905C137.556 28.9905 136.077 28.5589 134.693 27.6956C133.326 26.8324 132.236 25.656 131.423 24.1666C130.609 22.6601 130.203 21.0352 130.203 19.2919C130.203 17.5485 130.609 15.9321 131.423 14.4426C132.236 12.9361 133.326 11.7513 134.693 10.8881C136.077 10.0249 137.556 9.59326 139.13 9.59326C141.016 9.59326 142.772 10.1857 144.399 11.3705L143.101 12.8684C141.855 11.9883 140.532 11.5482 139.13 11.5482C137.227 11.5482 135.592 12.3099 134.225 13.8332C132.859 15.3566 132.175 17.1761 132.175 19.2919C132.175 21.4076 132.859 23.2272 134.225 24.7505C135.592 26.2738 137.227 27.0355 139.13 27.0355C140.532 27.0355 141.855 26.5954 143.101 25.7153Z" fill="#1B191F"/>
<path d="M149.244 28.9905H147.09L155.265 9.59326H156.536L164.711 28.9905H162.557L160.273 23.6334H151.527L149.244 28.9905ZM155.913 13.0208L152.332 21.6784H159.469L155.913 13.0208Z" fill="#1B191F"/>
<path d="M174.581 9.59326C174.875 9.61019 175.152 9.63558 175.412 9.66943C176.951 9.90639 178.258 10.6257 179.33 11.8275C180.403 13.0292 180.939 14.4002 180.939 15.9405C180.939 17.6162 180.308 19.0803 179.045 20.3328C177.799 21.5684 176.337 22.2116 174.659 22.2624H170.014V28.9905H168.015V9.59326H174.581ZM178.941 15.9405C178.941 14.7388 178.5 13.7147 177.618 12.8684C176.735 12.0052 175.688 11.5736 174.477 11.5736H170.014V20.3074H174.477C175.688 20.3074 176.735 19.8843 177.618 19.038C178.5 18.1747 178.941 17.1423 178.941 15.9405Z" fill="#1B191F"/>
<path d="M187.721 9.59326V28.9905H185.256V9.59326H187.721Z" fill="#1B191F"/>
<path d="M200.239 11.5736V28.9905H198.371V11.5736H191.831V9.59326H206.779V11.5736H200.239Z" fill="#1B191F"/>
<path d="M211.304 28.9905H209.15L217.325 9.59326H218.597L226.772 28.9905H224.618L222.334 23.6334H213.588L211.304 28.9905ZM217.974 13.0208L214.392 21.6784H221.529L217.974 13.0208Z" fill="#1B191F"/>
<path d="M243 28.9905H230.128V9.59326H232.126V27.0101H243V28.9905Z" fill="#1B191F"/>
<path d="M72.8283 19.0887C73.7107 19.6473 74.3941 20.3243 74.8786 21.1198C75.363 21.8984 75.6052 22.7278 75.6052 23.608C75.6052 25.2498 74.8353 26.6377 73.2955 27.7718C71.7729 28.9058 69.9044 29.4728 67.6898 29.4728C65.5098 29.4728 63.6585 28.9058 62.136 27.7718C60.6134 26.6208 59.8348 25.2075 59.8002 23.5318L59.7743 23.2017H63.0702L63.0962 23.5064C63.1135 23.9803 63.3298 24.4289 63.745 24.852C64.1602 25.2752 64.7139 25.6222 65.4059 25.893C66.1153 26.1469 66.8766 26.2738 67.6898 26.2738C68.5202 26.2738 69.2901 26.1469 69.9995 25.893C70.7262 25.6222 71.2885 25.2752 71.6864 24.852C72.1017 24.4289 72.3093 23.9888 72.3093 23.5318C72.3093 23.0579 72.093 22.6178 71.6605 22.2116C71.2452 21.8392 70.6743 21.5261 69.9476 21.2722C69.2209 21.0183 68.4597 20.8575 67.6638 20.7898C65.3627 20.5528 63.6585 20.0704 62.5512 19.3426C61.7553 18.801 61.1325 18.1493 60.6826 17.3877C60.2328 16.6091 60.0079 15.7966 60.0079 14.9503C60.0079 13.4778 60.6307 12.1998 61.8764 11.1166C63.1221 10.0164 64.6966 9.36473 66.5998 9.16162C66.9458 9.12777 67.3091 9.11084 67.6898 9.11084C68.0704 9.11084 68.4424 9.12777 68.8057 9.16162C70.6916 9.36473 72.2487 10.0079 73.4771 11.0912C74.7228 12.1744 75.3543 13.4439 75.3716 14.8995V15.2296H72.0757V14.9249C72.0411 14.214 71.5999 13.5878 70.7521 13.0461C69.9044 12.4876 68.8836 12.2083 67.6898 12.2083C66.4959 12.2083 65.4665 12.4876 64.6014 13.0461C63.7537 13.6047 63.3298 14.2479 63.3298 14.9757C63.3298 15.4496 63.5287 15.8812 63.9267 16.2705C64.7225 17.0491 65.9856 17.54 67.7157 17.7431C68.8749 17.8785 69.8524 18.0393 70.6483 18.2255C71.4615 18.3948 72.1882 18.6825 72.8283 19.0887Z" fill="#1B191F"/>
<path d="M89.924 9.28856L99.2149 29.2951H95.6335L93.1681 24.2681H84.3443L81.9047 29.2951H78.3233L87.6143 9.28856H89.924ZM91.7147 21.0437L88.7562 14.6456L85.8235 21.0437H91.7147Z" fill="#1B191F"/>
<path d="M101.107 9.28856H118.651V12.513H111.618L111.852 29.2951H108.556L108.141 12.513H101.107V9.28856Z" fill="#1B191F"/>
</svg>
