<svg width="68" height="53" viewBox="0 0 68 53" fill="none" xmlns="http://www.w3.org/2000/svg">
<g filter="url(#filter0_d_243_620)">
<path fill-rule="evenodd" clip-rule="evenodd" d="M24.7184 34.5751C26.1753 35.1177 27.2131 36.5207 27.2131 38.1667C27.2131 40.2833 25.4964 42 23.3797 42C21.2631 42 19.5464 40.2833 19.5464 38.1667C19.5464 36.2583 20.9416 34.6754 22.7663 34.3822L22.8024 34.1803C23.4505 30.5797 25.1505 25.2714 29.5959 21.4483C32.2963 19.1247 35.9947 17.363 41.0574 16.8859L38.5215 13.9012C38.1717 13.4885 38.2245 12.8712 38.636 12.5214C39.0487 12.1717 39.6673 12.2244 40.0158 12.6359L43.8195 17.1122C44.1371 17.4864 44.123 18.0316 43.8092 18.3891L40.0158 22.8526C39.666 23.2654 39.0487 23.3168 38.636 22.967C38.2232 22.6172 38.1717 22 38.5215 21.5872L40.8272 18.8726C36.4332 19.3613 33.2196 20.9121 30.869 22.9336C26.8633 26.3786 25.3202 31.2278 24.7274 34.5236L24.7184 34.5725V34.5751ZM50.4935 13.9128C52.6101 13.9128 54.3268 15.6295 54.3268 17.7462C54.3268 19.8628 52.6101 21.5795 50.4935 21.5795C48.3768 21.5795 46.6601 19.8628 46.6601 17.7462C46.6601 15.6295 48.3768 13.9128 50.4935 13.9128ZM21.9562 12.2874C22.3394 11.9042 22.9605 11.9042 23.3437 12.2874C23.7269 12.6706 23.7269 13.2917 23.3437 13.6749L20.7024 16.3162L23.3437 18.9562C23.7269 19.3394 23.7269 19.9605 23.3437 20.3437C22.9605 20.7269 22.3394 20.7269 21.9562 20.3437L19.3162 17.7037L16.6749 20.3437C16.2917 20.7269 15.6706 20.7269 15.2874 20.3437C14.9042 19.9605 14.9042 19.3394 15.2874 18.9562L17.9274 16.3162L15.2874 13.6749C14.9042 13.2917 14.9042 12.6706 15.2874 12.2874C15.6706 11.9042 16.2917 11.9042 16.6749 12.2874L19.3162 14.9274L21.9562 12.2874ZM41.3171 29.1935C41.7003 28.8103 42.3214 28.8103 42.7046 29.1935C43.0878 29.5767 43.0878 30.1978 42.7046 30.581L40.0633 33.2223L42.7046 35.8623C43.0878 36.2455 43.0878 36.8666 42.7046 37.2498C42.3214 37.633 41.7003 37.633 41.3171 37.2498L38.6771 34.6098L36.0358 37.2498C35.6526 37.633 35.0315 37.633 34.6483 37.2498C34.2651 36.8666 34.2651 36.2455 34.6483 35.8623L37.2883 33.2223L34.6483 30.581C34.2651 30.1978 34.2651 29.5767 34.6483 29.1935C35.0315 28.8103 35.6526 28.8103 36.0358 29.1935L38.6771 31.8335L41.3171 29.1935Z" fill="#FFBB05"/>
</g>
<defs>
<filter id="filter0_d_243_620" x="0" y="-5" width="67.3268" height="58" filterUnits="userSpaceOnUse" color-interpolation-filters="sRGB">
<feFlood flood-opacity="0" result="BackgroundImageFix"/>
<feColorMatrix in="SourceAlpha" type="matrix" values="0 0 0 0 0 0 0 0 0 0 0 0 0 0 0 0 0 0 127 0" result="hardAlpha"/>
<feOffset dx="-1" dy="-3"/>
<feGaussianBlur stdDeviation="7"/>
<feComposite in2="hardAlpha" operator="out"/>
<feColorMatrix type="matrix" values="0 0 0 0 1 0 0 0 0 0.733333 0 0 0 0 0.0196078 0 0 0 0.4 0"/>
<feBlend mode="normal" in2="BackgroundImageFix" result="effect1_dropShadow_243_620"/>
<feBlend mode="normal" in="SourceGraphic" in2="effect1_dropShadow_243_620" result="shape"/>
</filter>
</defs>
</svg>
