<svg width="62" height="54" viewBox="0 0 62 54" fill="none" xmlns="http://www.w3.org/2000/svg">
<g filter="url(#filter0_d_243_53)">
<path d="M34.1485 10.28C34.1485 11.3318 33.4493 12.2077 32.4683 12.4769V18.5153H31.2808V12.4769C30.3282 12.2178 29.5945 11.3662 29.5945 10.28C29.5945 9.02123 30.6157 8 31.8745 8C33.1273 7.99999 34.1485 9.02123 34.1485 10.28Z" fill="#FFBB05"/>
<path d="M24.7376 22.137L23.8707 23.0098L18.8594 20.0767C18.4497 20.4745 17.8916 20.718 17.2801 20.718C16.0213 20.718 15 19.6967 15 18.4379C15 17.1851 16.0213 16.158 17.2801 16.158C18.0816 16.158 18.8357 16.5973 19.2513 17.2979C19.2513 17.2979 19.2513 17.2979 19.2513 17.3039C19.5395 17.7788 19.6475 18.4342 19.4591 19.0555L24.7376 22.137Z" fill="#FFBB05"/>
<path d="M34.1485 43.72C34.1485 44.9788 33.1273 46 31.8745 46C30.6157 46 29.5945 44.9788 29.5945 43.72C29.5945 42.6739 30.2883 41.7891 31.2808 41.5231V35.4847H32.4683V41.5231C33.4158 41.7798 34.1485 42.64 34.1485 43.72Z" fill="#FFBB05"/>
<path d="M38.275 30.9187L36.7431 29.6422C36.9213 29.3037 37.0697 28.9475 37.1825 28.5734L39.1716 28.7515V25.2484L37.1825 25.4206C37.0756 25.0465 36.9272 24.6903 36.7431 24.3578L38.275 23.0812L35.7871 20.5994L34.5106 22.1253C34.1781 21.9412 33.8159 21.7928 33.4478 21.6859L33.626 19.7028H30.1228L30.295 21.6859C29.9329 21.7928 29.5765 21.9412 29.2322 22.1253L27.9556 20.5994L25.4738 23.0812L26.9997 24.3519C26.8216 24.6903 26.6732 25.0465 26.5603 25.4206L24.5713 25.2484V28.7515L26.5603 28.5734C26.6732 28.9475 26.8216 29.3038 27.0056 29.6422L25.4738 30.9187L27.9556 33.4006L29.2322 31.8747C29.5766 32.0587 29.9329 32.2072 30.295 32.314L30.1228 34.2972H33.626L33.4478 32.314C33.8159 32.2072 34.1781 32.0587 34.5106 31.8747L35.7872 33.4006L38.275 30.9187ZM31.8744 29.1494C30.6869 29.1494 29.719 28.1875 29.719 27C29.719 25.8537 30.6537 24.8506 31.8744 24.8506C33.0769 24.8506 34.0237 25.832 34.0237 27C34.0237 28.1875 33.056 29.1494 31.8744 29.1494Z" fill="#FFBB05"/>
<path d="M48.7428 35.2946C48.7428 36.5474 47.7216 37.5746 46.4687 37.5746C45.6613 37.5746 44.9132 37.1412 44.5035 36.4524C44.5035 36.4465 44.4975 36.4405 44.4916 36.4346C44.4916 36.4287 44.4916 36.4287 44.4857 36.4228C44.181 35.9058 44.1007 35.2869 44.3016 34.6118L39.231 31.6431L40.0326 30.8415L39.6288 30.5031L44.9428 33.6084C45.3466 33.2462 45.8809 33.0146 46.4687 33.0146C47.7216 33.0146 48.7428 34.0359 48.7428 35.2946Z" fill="#FFBB05"/>
<path d="M39.0112 22.1371L44.2778 19.0555C44.0962 18.4096 44.2127 17.7843 44.5094 17.298C44.9131 16.6093 45.6672 16.1817 46.4687 16.1817C47.7216 16.1817 48.7428 17.203 48.7428 18.4617C48.7428 19.0911 48.4875 19.6611 48.0778 20.0767C47.1999 20.9545 45.7593 20.9705 44.8715 20.0827L39.8782 23.0039L39.0112 22.1371Z" fill="#FFBB05"/>
<path d="M19.3879 34.7365C19.9903 36.2095 18.9038 37.8596 17.2801 37.8596C16.0213 37.8596 15 36.8384 15 35.5796C15 34.3268 16.0154 33.3056 17.2682 33.2996C17.2741 33.2996 17.2741 33.2996 17.2801 33.2996C17.286 33.2996 17.286 33.2996 17.2919 33.2996C17.8085 33.3056 18.2835 33.4896 18.6635 33.7806L23.7638 30.7999L23.7163 30.8415L24.5773 31.6965L19.3879 34.7365Z" fill="#FFBB05"/>
</g>
<defs>
<filter id="filter0_d_243_53" x="0" y="-9" width="61.7429" height="66" filterUnits="userSpaceOnUse" color-interpolation-filters="sRGB">
<feFlood flood-opacity="0" result="BackgroundImageFix"/>
<feColorMatrix in="SourceAlpha" type="matrix" values="0 0 0 0 0 0 0 0 0 0 0 0 0 0 0 0 0 0 127 0" result="hardAlpha"/>
<feOffset dx="-1" dy="-3"/>
<feGaussianBlur stdDeviation="7"/>
<feComposite in2="hardAlpha" operator="out"/>
<feColorMatrix type="matrix" values="0 0 0 0 1 0 0 0 0 0.733333 0 0 0 0 0.0196078 0 0 0 0.4 0"/>
<feBlend mode="normal" in2="BackgroundImageFix" result="effect1_dropShadow_243_53"/>
<feBlend mode="normal" in="SourceGraphic" in2="effect1_dropShadow_243_53" result="shape"/>
</filter>
</defs>
</svg>
