<svg width="66" height="54" viewBox="0 0 66 54" fill="none" xmlns="http://www.w3.org/2000/svg">
<g filter="url(#filter0_d_243_206)">
<path d="M52.6326 31.0579L48.1918 26.8531C47.7178 26.4039 46.9659 26.4209 46.5129 26.891C46.06 27.3611 46.0771 28.1062 46.5514 28.5552L48.867 30.7478H42.1214C42.1244 30.7059 42.1275 30.6654 42.1309 30.6233C42.428 26.6507 42.9058 25.3639 44.0924 25.3639C44.1049 25.3639 44.1178 25.3639 44.1311 25.3641C44.7794 25.3641 45.3093 24.8476 45.3181 24.2028C45.3269 23.5528 44.8025 23.0189 44.1467 23.01C44.1251 23.0097 44.104 23.0097 44.0824 23.0097C40.3192 23.0097 39.9841 27.4833 39.7623 30.4493C39.7547 30.5505 39.7471 30.6487 39.7397 30.7481H35.8471C35.8186 30.2278 35.8001 29.6821 35.7944 29.1103C35.7307 22.7837 34.9073 19.0741 33.203 17.4356C32.4986 16.7588 31.6191 16.4125 30.6608 16.4308C27.3202 16.4998 26.441 21.3155 25.8593 24.5023C25.7691 24.9962 25.684 25.4628 25.6035 25.83C25.5719 25.9743 25.5337 26.1019 25.4924 26.2213C25.1537 26.9117 24.2455 27.3805 23.7836 27.3899C23.1281 27.404 22.608 27.9407 22.6222 28.5905C22.6341 29.2402 23.1756 29.7581 23.8335 29.744L23.8356 29.7438C24.9661 29.8655 27.2715 29.3092 27.9241 26.3298C28.0134 25.9225 28.1023 25.4362 28.1961 24.9215C28.5298 23.0938 29.3109 18.8135 30.7098 18.7847C31.0387 18.7784 31.2969 18.8834 31.5493 19.1259C32.3644 19.9091 33.3505 22.2814 33.4194 29.1338C33.423 29.4775 33.4353 30.0484 33.4731 30.7481H21.6874V14.0611L23.9676 16.3503C24.1999 16.5836 24.5063 16.7004 24.8127 16.7004C25.114 16.7004 25.4154 16.5874 25.647 16.3609C26.1137 15.9044 26.1184 15.1591 25.6577 14.6965L21.3286 10.3501C21.1053 10.1259 20.8011 10 20.4835 10H20.4812C20.1629 10.0007 19.858 10.1278 19.6352 10.3534L15.3393 14.6996C14.8802 15.1638 14.8881 15.9092 15.3564 16.364C15.8247 16.8188 16.5767 16.8115 17.0358 16.347L19.3127 14.0437V41.8229C19.3127 42.4731 19.8444 43 20.5002 43C21.1559 43 21.6876 42.4731 21.6876 41.8229V33.1022H33.6771C33.7262 33.5036 33.7844 33.913 33.854 34.3214C34.2397 36.5901 34.8339 38.0852 35.6709 38.8925C36.1651 39.3692 36.7579 39.6204 37.3878 39.6204C37.4013 39.6204 37.4151 39.6201 37.4288 39.6199C38.4824 39.602 39.4191 39.077 40.138 38.1024C40.9303 37.028 41.497 35.3883 41.8656 33.1024H48.8497L46.5483 35.2982C46.0757 35.749 46.0615 36.4943 46.5163 36.9625C46.7493 37.2027 47.0604 37.3232 47.372 37.3232C47.6684 37.3232 47.965 37.214 48.1954 36.9943L52.6359 32.7573C52.8691 32.5349 53.0005 32.2276 53 31.907C52.9995 31.5864 52.8665 31.2794 52.6326 31.0579ZM37.4108 37.2702C36.9781 37.0923 36.4 35.5943 36.0647 33.1022H39.4566C38.9149 36.1351 38.0537 37.2549 37.4108 37.2702Z" fill="#FFBB05"/>
</g>
<defs>
<filter id="filter0_d_243_206" x="0" y="-7" width="66" height="61" filterUnits="userSpaceOnUse" color-interpolation-filters="sRGB">
<feFlood flood-opacity="0" result="BackgroundImageFix"/>
<feColorMatrix in="SourceAlpha" type="matrix" values="0 0 0 0 0 0 0 0 0 0 0 0 0 0 0 0 0 0 127 0" result="hardAlpha"/>
<feOffset dx="-1" dy="-3"/>
<feGaussianBlur stdDeviation="7"/>
<feComposite in2="hardAlpha" operator="out"/>
<feColorMatrix type="matrix" values="0 0 0 0 1 0 0 0 0 0.733333 0 0 0 0 0.0196078 0 0 0 0.4 0"/>
<feBlend mode="normal" in2="BackgroundImageFix" result="effect1_dropShadow_243_206"/>
<feBlend mode="normal" in="SourceGraphic" in2="effect1_dropShadow_243_206" result="shape"/>
</filter>
</defs>
</svg>
