<svg width="68" height="53" viewBox="0 0 68 53" fill="none" xmlns="http://www.w3.org/2000/svg">
<g filter="url(#filter0_d_243_984)">
<path d="M16.1912 11C15.5424 11.0679 14.9965 11.6768 15 12.3285V36.2416C15.0001 36.9372 15.6335 37.57 16.3297 37.5701H25.194V39.3414C24.121 39.3414 23.014 39.3414 21.953 39.3414C21.2567 39.3778 20.6563 40.0434 20.6926 40.7391C20.7288 41.4348 21.3952 42.0348 22.0915 41.9984H43.3658C43.8911 42.0051 44.4086 41.6658 44.6123 41.182C44.8161 40.6981 44.6936 40.0995 44.3215 39.729C44.0066 39.7635 43.6895 39.7843 43.3658 39.7843C41.0382 39.7157 39.3285 39.0904 37.604 37.6255V39.3414H27.8533V37.5701H37.5347C36.6885 36.8269 35.9867 35.9245 35.471 34.9131H17.6593V33.5846H34.917C34.6509 32.7454 34.5015 31.8517 34.5015 30.9276H17.6593V13.657H46.9115V22.832C47.9016 23.2688 48.8082 23.8684 49.5708 24.6172V12.3285C49.5707 11.6329 48.9373 11.0001 48.2411 11C37.5612 11 26.8608 11 16.1912 11ZM20.3186 15.6498V18.3068H22.9779V15.6498H20.3186ZM25.6372 15.6498V18.3068H28.2965V15.6498H25.6372ZM30.9558 15.6498V18.3068H33.6151V15.6498H30.9558ZM36.2743 15.6498V18.3068H38.9336V15.6498H36.2743ZM41.5929 15.6498V18.3068H44.2522V15.6498H41.5929ZM20.3186 20.9638V23.6208H22.9779V20.9638H20.3186ZM25.6372 20.9638V23.6208H28.2965V20.9638H25.6372ZM30.9558 20.9638V23.6208H33.6151V20.9638H30.9558ZM36.2743 20.9638V23.6208H38.3796C38.5567 23.4995 38.7477 23.3972 38.9336 23.2887V20.9638H36.2743ZM41.5929 20.9638V22.2508C42.534 22.0623 43.3754 22.054 44.2522 22.1125V20.9639L41.5929 20.9638ZM43.3658 22.5137C38.7307 22.5137 34.9447 26.2964 34.9447 30.9276C34.9447 35.5587 38.7307 39.3414 43.3658 39.3414C45.4819 39.3414 47.4094 38.5495 48.8921 37.2518L52.7755 40.4902C53.301 40.9863 54.2506 40.9335 54.7146 40.3795C55.1785 39.8255 55.0605 38.8853 54.4791 38.456L50.5957 35.2176C51.3491 33.9583 51.7869 32.4949 51.7869 30.9276C51.7869 26.2964 48.0009 22.5137 43.3658 22.5137ZM43.3658 25.1707C46.5637 25.1707 49.1276 27.7324 49.1276 30.9276C49.1276 34.1227 46.5637 36.6844 43.3658 36.6844C40.1679 36.6844 37.604 34.1227 37.604 30.9276C37.604 27.7324 40.1679 25.1707 43.3658 25.1707ZM20.3186 26.2778V28.9349H22.9779V26.2778H20.3186ZM25.6372 26.2778V28.9349H28.2965V26.2778H25.6372ZM30.9558 26.2778V28.9349H33.6151V26.2778H30.9558Z" fill="#FFBB05"/>
</g>
<defs>
<filter id="filter0_d_243_984" x="0" y="-6" width="68" height="59" filterUnits="userSpaceOnUse" color-interpolation-filters="sRGB">
<feFlood flood-opacity="0" result="BackgroundImageFix"/>
<feColorMatrix in="SourceAlpha" type="matrix" values="0 0 0 0 0 0 0 0 0 0 0 0 0 0 0 0 0 0 127 0" result="hardAlpha"/>
<feOffset dx="-1" dy="-3"/>
<feGaussianBlur stdDeviation="7"/>
<feComposite in2="hardAlpha" operator="out"/>
<feColorMatrix type="matrix" values="0 0 0 0 1 0 0 0 0 0.733333 0 0 0 0 0.0196078 0 0 0 0.4 0"/>
<feBlend mode="normal" in2="BackgroundImageFix" result="effect1_dropShadow_243_984"/>
<feBlend mode="normal" in="SourceGraphic" in2="effect1_dropShadow_243_984" result="shape"/>
</filter>
</defs>
</svg>
