<svg width="266" height="538" viewBox="0 0 266 538" fill="none" xmlns="http://www.w3.org/2000/svg">
<path d="M134.215 447.563L133.221 448.271C132.562 448.718 131.641 449.439 130.375 450.224C129.123 451.026 127.603 452 125.86 453.12C124.117 454.239 122.159 455.517 119.927 456.752C109.197 463.115 97.9232 468.511 86.2374 472.876C74.5537 477.244 62.5196 480.61 50.2653 482.938L43.4139 484.16C41.3682 484.488 39.5705 484.669 38.0982 484.872L33.4602 485.456" stroke="#3F4568"/>
<path d="M59.1956 466.411C59.1956 466.411 57.5122 466.8 54.5652 467.477C53.0854 467.786 51.3185 468.303 49.2395 468.637L42.2763 469.88C29.7514 471.857 17.0734 472.699 4.39704 472.393C-8.27637 472.065 -20.8934 470.581 -33.2969 467.959L-40.1883 466.368C-42.2415 465.902 -43.9858 465.321 -45.4464 464.932L-50.0151 463.636" stroke="#3F4568"/>
<path d="M184.425 373.191L183.518 374.745C182.885 375.732 181.956 377.182 180.772 379.025C179.589 380.868 178.185 383.129 176.371 385.586C174.594 388.064 172.663 390.917 170.279 393.826L166.66 398.434L162.555 403.173C161.85 403.986 161.136 404.811 160.414 405.646L158.11 408.079C156.552 409.712 154.961 411.378 153.337 413.075C146.343 419.952 138.911 426.37 131.088 432.288C123.184 438.095 114.91 443.379 106.318 448.109C102.121 450.209 98.1524 452.423 94.188 454.1C92.2241 454.979 90.3279 455.866 88.47 456.668L83.0216 458.814C79.5563 460.266 76.2612 461.274 73.3784 462.27C70.5065 463.303 67.9392 463.999 65.831 464.59L60.9401 465.981C59.8092 466.292 59.1941 466.409 59.1941 466.409" stroke="#3F4568"/>
<path d="M211.485 382.579C211.485 382.579 210.058 385.046 207.563 389.364C206.217 391.463 204.585 394.012 202.712 396.936C200.839 399.861 198.479 402.992 196.029 406.492C194.81 408.244 193.368 409.946 191.966 411.775C190.524 413.57 189.112 415.491 187.51 417.341C184.299 421.036 180.991 425.003 177.235 428.802C173.624 432.741 169.557 436.473 165.502 440.346C161.265 444.019 157.036 447.841 152.489 451.28C148.072 454.882 143.35 458.082 138.774 461.321C134.052 464.348 129.451 467.404 124.764 469.98C120.181 472.734 115.529 474.987 111.173 477.233C108.994 478.349 106.787 479.261 104.698 480.238C102.588 481.164 100.589 482.158 98.5939 482.925C94.6061 484.47 90.993 486.003 87.7063 487.131L79.1807 490.015C76.802 490.767 74.9024 491.258 73.6213 491.638C72.336 492.003 71.649 492.196 71.649 492.196" stroke="#3F4568"/>
<path d="M55.0835 496.17L49.7578 497.125C48.0594 497.402 46.0129 497.848 43.6351 498.152L35.6486 499.169C21.3206 500.736 6.88031 501.006 -7.49624 499.975C-21.8892 498.911 -36.154 496.527 -50.1111 492.854L-57.8622 490.652C-60.1758 490.017 -62.1288 489.258 -63.7688 488.733L-68.895 486.993" stroke="#3F4568"/>
<path d="M85.9378 442.178C85.9378 442.178 80.1055 444.896 70.9923 448.021C59.8518 451.858 48.3721 454.63 36.7078 456.297C25.024 457.975 13.2093 458.562 1.41671 458.05C-1.00368 458.035 -3.1954 457.737 -5.15342 457.632C-7.10643 457.473 -8.81406 457.382 -10.2112 457.23L-14.5955 456.668" stroke="#3F4568"/>
<path d="M-171.131 434.418C-171.131 434.418 -164.177 435.123 -157.498 435.497C-150.666 435.779 -144.088 435.711 -144.088 435.711L-143.548 436.225C-143.202 436.567 -142.678 437.051 -141.985 437.637L-136.301 442.562C-135.141 443.6 -133.827 444.655 -132.416 445.747L-128.006 449.212C-126.497 450.44 -124.858 451.605 -123.188 452.782L-118.139 456.37C-114.706 458.701 -111.174 460.887 -107.902 462.991C-104.527 464.93 -101.378 466.741 -98.68 468.293L-89.445 473.035L-89.0936 473.994C-88.8566 474.59 -88.5169 475.439 -88.1104 476.458C-87.2833 478.5 -86.144 481.239 -84.9389 484C-84.3237 485.386 -83.7095 486.771 -83.1344 488.069C-82.5193 489.337 -81.9442 490.521 -81.451 491.536L-79.7484 494.928L-76.3356 496.272C-74.1831 497.179 -71.0049 498.202 -67.2182 499.493C-48.6632 505.745 -29.3989 509.652 -9.87404 511.123C-5.89207 511.418 -2.57446 511.715 -0.247542 511.719L3.4081 511.814" stroke="#3F4568"/>
<path d="M13.3676 443.755L11.4563 443.808C10.847 443.815 10.1092 443.866 9.26211 443.853L6.41521 443.769C4.32867 443.678 1.89072 443.732 -0.704114 443.53C-3.29811 443.309 -6.0715 443.145 -8.83493 442.888L-16.9166 441.863L-23.9065 440.616C-25.9639 440.307 -27.6306 439.825 -28.8149 439.574L-30.6694 439.145C-30.6694 439.145 -33.3336 433.817 -35.4693 428.266C-36.5544 425.512 -37.5818 422.863 -38.2778 420.781C-38.9514 418.7 -39.4012 417.314 -39.4012 417.314L-41.012 416.767C-42.0486 416.376 -43.6353 415.983 -45.539 415.161C-50.8942 413.142 -56.1299 410.819 -61.2207 408.204C-73.982 401.966 -89.7947 390.964 -102.964 377.213C-109.417 370.502 -115.27 363.238 -120.455 355.506C-124.957 348.765 -128.913 341.676 -132.287 334.306L-134.392 329.666C-134.982 328.158 -135.538 326.731 -136.061 325.386C-137.194 322.731 -137.907 320.317 -138.587 318.362L-139.485 315.747C-139.736 314.983 -139.891 314.316 -140.049 313.785C-140.348 312.717 -140.51 312.147 -140.51 312.147L-142.781 311.305C-144.2 310.753 -146.37 309.976 -148.775 308.912C-154.888 306.29 -160.842 303.313 -166.607 299.996C-168.216 299.078 -169.831 298.128 -171.428 297.168C-172.985 296.203 -174.474 295.219 -175.948 294.247C-178.874 292.298 -181.648 290.381 -183.992 288.677C-188.522 285.246 -191.567 282.734 -191.567 282.734" stroke="#3F4568"/>
<path d="M65.1349 429.918L68.1963 428.89C70.1059 428.131 72.8368 427.053 76.1127 425.751C84.0241 422.316 91.6867 418.335 99.0447 413.836C106.395 409.299 113.381 404.195 119.937 398.571L123.587 395.419C124.672 394.474 125.536 393.57 126.292 392.868L128.638 390.635C128.638 390.635 130.057 390.842 132.182 391.065C134.276 391.265 137.106 391.5 139.999 391.682C142.891 391.864 145.841 391.999 147.988 391.992L151.642 392.001C151.642 392.001 152.142 391.417 153.029 390.403C153.469 389.895 154.008 389.278 154.623 388.567C155.201 387.828 155.853 386.995 156.566 386.086C159.477 382.503 163.124 377.54 166.524 372.412C167.353 371.117 168.184 369.824 169.001 368.547C169.835 367.281 170.629 366.022 171.32 364.756C172.739 362.245 174.133 359.941 175.219 357.907L178.724 351.063C178.724 351.063 179.275 350.932 180.182 350.665C181.089 350.398 182.402 349.997 183.968 349.526C185.543 349.04 187.39 348.451 189.385 347.789C191.379 347.126 193.539 346.393 195.596 345.575C199.757 343.965 204.032 342.204 207.197 340.78L212.383 338.298L213.354 335.426C213.65 334.508 214.068 333.41 214.439 332.118C214.811 330.826 215.221 329.364 215.674 327.778C216.128 326.192 216.614 324.462 217.133 322.638C217.561 320.791 218.012 318.844 218.479 316.829C219.496 312.817 220.219 308.464 220.991 304.12C221.423 301.955 221.676 299.764 221.947 297.61C222.219 295.456 222.49 293.337 222.75 291.286C223.071 287.164 223.37 283.317 223.627 280.019C223.794 273.407 223.905 269.002 223.905 269.002" stroke="#3F4568"/>
<path d="M247.523 275.25C247.523 275.25 247.497 276.27 247.449 278.056C247.425 278.949 247.394 280.034 247.36 281.277C247.267 282.518 247.163 283.92 247.05 285.45C246.68 291.569 245.793 299.709 244.479 307.788C244.12 309.802 243.759 311.817 243.406 313.797C243.228 314.788 243.05 315.77 242.873 316.743C242.657 317.706 242.444 318.657 242.233 319.594C241.349 323.33 240.622 326.84 239.804 329.8L237.003 339.649C237.003 339.649 239.729 345.693 242.289 352.124C243.624 355.345 244.657 358.55 245.534 361.025C246.368 363.509 246.921 365.165 246.921 365.165L246.38 366.528C246.024 367.416 245.529 368.728 244.776 370.348C244.043 371.975 243.152 373.95 242.128 376.216C241.614 377.347 241.068 378.548 240.488 379.82L238.509 383.735C237.09 386.445 235.658 389.436 233.932 392.484L228.424 402.027L222.067 411.943C219.779 415.235 217.404 418.545 215.036 421.859C206.108 433.834 196.145 445.001 185.262 455.231C176.368 463.602 169.927 468.608 169.927 468.608" stroke="#3F4568"/>
<path d="M188.245 278.971L187.761 285.278C187.677 287.177 187.336 289.362 187.045 291.713C186.755 294.064 186.48 296.581 185.971 299.058C185.49 301.535 185.157 304.046 184.608 306.348C184.077 308.654 183.58 310.805 183.154 312.651C182.755 314.501 182.229 315.993 181.953 317.063L181.479 318.732C181.479 318.732 179.429 319.646 176.4 320.902C173.257 322.123 169.098 323.635 165.029 324.97C160.901 326.294 156.683 327.376 153.644 328.141C152.112 328.519 150.856 328.819 149.921 328.999L148.486 329.288L147.604 331.222C147.014 332.439 146.342 334.258 145.217 336.29C144.112 338.329 143.025 340.816 141.493 343.287L139.275 347.172C138.478 348.472 137.606 349.754 136.783 351.065C135.192 353.727 133.277 356.176 131.632 358.571C129.935 360.93 128.164 362.994 126.771 364.859L121.713 370.743" stroke="#3F4568"/>
<path d="M133.143 482.934L129.907 484.792C127.872 486.021 124.84 487.546 121.215 489.404C112.334 493.911 103.193 497.888 93.84 501.311C88.6854 503.026 83.5858 504.923 78.6549 506.219L71.5873 508.215L65.1833 509.718L59.7633 510.957C58.1424 511.291 56.7186 511.521 55.5501 511.739L51.8778 512.398L48.6796 516.284C46.7324 518.607 44.0416 521.536 41.2514 524.547C38.4613 527.558 35.5601 530.542 33.3225 532.643L29.5517 536.217C29.5517 536.217 28.2723 536.31 26.0313 536.477C23.792 536.692 20.5921 536.753 16.7503 536.854L10.5449 536.994C8.34486 537.026 6.0238 536.922 3.62177 536.88L-3.7813 536.676C-6.30019 536.528 -8.85996 536.319 -11.4189 536.131C-13.977 535.912 -16.541 535.784 -19.0507 535.471L-26.422 534.544C-31.2127 534.008 -35.6346 533.125 -39.4354 532.464L-44.6101 531.51C-46.1399 531.162 -47.4736 530.859 -48.5728 530.61L-52.0215 529.816" stroke="#3F4568"/>
<path d="M72.7876 62.6687C72.7876 62.6687 73.5312 62.8473 74.8808 63.3239L80.7565 65.3111C83.3088 66.1098 86.3151 67.3309 89.7771 68.6988C93.2725 69.9858 97.0683 71.7869 101.246 73.6631C110.691 78.0989 119.8 83.2184 128.499 88.9809C138.456 95.606 147.862 103.023 156.626 111.161C174.685 127.678 189.051 147.78 197.933 163.762C199.11 165.727 200.103 167.685 201.046 169.547C201.989 171.409 202.9 173.166 203.747 174.823C205.344 178.183 206.636 181.16 207.748 183.587C208.861 186.013 209.539 188.01 210.096 189.326C210.62 190.662 210.9 191.367 210.9 191.367" stroke="#3F4568"/>
<path d="M-40.002 71.5949L-35.3732 70.5283C-33.8934 70.2203 -32.1273 69.7045 -30.0458 69.369L-23.0842 68.1263C-10.5594 66.1484 2.11862 65.3073 14.795 65.6132C27.469 65.9402 40.0867 67.4248 52.4906 70.0484L59.3804 71.6342C61.4335 72.1007 63.1795 72.6833 64.6385 73.0705L69.2088 74.3684" stroke="#3F4568"/>
<path d="M54.4885 79.2142L56.1686 79.5998C56.7153 79.7267 57.3913 79.8811 58.1859 80.063L60.8809 80.8225C62.8948 81.411 65.3578 82.0636 68.1521 82.9158C70.913 83.8756 74.0562 84.8721 77.4364 86.1007C110.6 98.4793 139.791 119.61 161.909 147.248C164.132 150.08 166.212 152.644 167.85 155.069C169.512 157.474 171.09 159.485 172.177 161.283L175.738 166.837" stroke="#3F4568"/>
<path d="M-35.8932 41.8341L-30.5692 40.8793C-28.8707 40.6022 -26.8242 40.1565 -24.4464 39.8527L-16.4599 38.837C-2.13025 37.2697 12.3116 36.9996 26.6899 38.0299C41.0835 39.0944 55.3489 41.4786 69.3064 45.1525L77.0559 47.3526C79.3711 47.9886 81.3241 48.7489 82.9642 49.2722L88.0887 51.0107" stroke="#3F4568"/>
<path d="M-66.749 95.8247C-66.749 95.8247 -60.9167 93.1072 -51.8018 89.9824C-40.662 86.1446 -29.1828 83.3735 -17.519 81.7063C-5.83456 80.0288 5.98058 79.442 17.7737 79.9536C20.1941 79.9686 22.3858 80.2683 24.3422 80.3768C26.2952 80.5362 28.0028 80.6271 29.4016 80.7774L33.7842 81.3407" stroke="#3F4568"/>
<path d="M190.32 103.585C190.32 103.585 183.367 102.881 176.689 102.507C169.856 102.225 163.278 102.294 163.278 102.294L162.739 101.78C162.392 101.437 161.869 100.953 161.176 100.368L155.492 95.4433C154.332 94.4051 153.019 93.3484 151.608 92.2584L147.197 88.7914C145.688 87.5637 144.049 86.4002 142.379 85.2218L137.331 81.6329C133.898 79.3026 130.365 77.1176 127.092 75.0135C123.719 73.0722 120.57 71.2619 117.87 69.7095C112.33 66.8643 108.635 64.9689 108.635 64.9689C108.635 64.9689 108.508 64.6192 108.284 64.0082L107.304 61.5428C106.477 59.5021 105.339 56.7637 104.133 54.0011C103.519 52.6157 102.905 51.2302 102.328 49.9307C101.713 48.6629 101.138 47.4803 100.645 46.4654C99.6239 44.4289 98.9429 43.0718 98.9429 43.0718L95.5285 41.7297C93.376 40.8225 90.1995 39.8001 86.4111 38.5073C67.8579 32.2553 48.5956 28.3481 29.0727 26.8769C25.0891 26.5831 21.7715 26.2851 19.4446 26.2826L15.7889 26.1858" stroke="#3F4568"/>
<path d="M5.82104 94.249L7.73399 94.1973C8.34159 94.1898 9.08106 94.1389 9.9282 94.1539L12.7734 94.2373C14.86 94.3267 17.2979 94.2732 19.8944 94.4769C22.4884 94.6972 25.2618 94.8616 28.0244 95.1179L36.106 96.1428L43.096 97.3897C45.1533 97.6993 46.8201 98.1826 48.0044 98.4321L49.8606 98.8611C49.8606 98.8611 52.5247 104.189 54.6605 109.741C55.7455 112.495 56.7712 115.143 57.469 117.224L58.5907 120.692L60.2007 121.239C61.2373 121.63 62.8256 122.023 64.7293 122.845C70.0844 124.864 75.3201 127.187 80.411 129.802C93.1707 136.04 108.983 147.043 122.153 160.792C128.606 167.501 134.46 174.763 139.646 182.493C144.148 189.233 148.104 196.322 151.478 203.692C152.212 205.309 152.915 206.863 153.585 208.332C154.173 209.84 154.73 211.267 155.254 212.612C156.387 215.269 157.1 217.683 157.78 219.638C158.114 220.617 158.418 221.491 158.678 222.251C158.939 223.012 159.085 223.683 159.242 224.215L159.702 225.853L161.974 226.693C163.393 227.246 165.563 228.022 167.969 229.086C174.082 231.707 180.036 234.684 185.801 238C187.41 238.918 189.026 239.867 190.622 240.826C192.178 241.791 193.67 242.777 195.142 243.747C198.068 245.696 200.842 247.613 203.185 249.319C207.715 252.748 210.761 255.26 210.761 255.26" stroke="#3F4568"/>
<path d="M192.96 135.629L196.689 140.877C197.845 142.426 198.993 144.369 200.317 146.385C201.594 148.433 203.071 150.549 204.332 152.796C206.911 157.254 209.507 161.706 211.189 165.187L213.315 169.344C213.832 170.345 214.109 170.93 214.109 170.93C214.109 170.93 216.509 171.864 220.161 173.391C223.814 174.918 228.766 177.054 233.53 179.51C235.942 180.719 238.371 181.975 240.655 183.191C242.955 184.4 244.963 185.626 246.764 186.67C250.329 188.775 252.726 190.268 252.726 190.268C252.726 190.268 253.147 191.449 253.796 193.541C254.398 195.649 255.255 198.66 256.286 202.275L257.076 205.096C257.308 206.081 257.548 207.098 257.795 208.148L259.317 214.741C259.878 217.022 260.304 219.41 260.735 221.836C261.167 224.261 261.603 226.726 262.041 229.192C262.76 234.141 263.383 239.108 263.897 243.765C264.259 248.434 264.622 252.793 264.834 256.535L265.147 269.002" stroke="#3F4568"/>
<path d="M-113.953 55.0687L-110.716 53.2108C-108.683 51.9814 -105.651 50.4566 -102.024 48.5987C-93.1426 44.0916 -84.0014 40.1155 -74.6487 36.6912C-69.4925 34.976 -64.3929 33.0798 -59.4637 31.7836L-52.3961 29.7872L-45.9912 28.2849L-40.5712 27.0438C-38.9504 26.71 -37.5265 26.4805 -36.3581 26.2618L-32.6858 25.6049L-29.4875 21.7181C-27.5387 19.3937 -24.8495 16.4667 -22.0594 13.4554C-19.2692 10.4441 -16.3681 7.45864 -14.1305 5.35957L-10.358 1.7874L-6.83924 1.527C-4.59829 1.3125 -1.39836 1.24991 2.44173 1.14892L8.64544 1.00619C10.8455 0.973644 13.1666 1.07797 15.567 1.1197L22.97 1.32419C25.4889 1.47275 28.0504 1.6814 30.6093 1.86919C33.1658 2.08786 35.7297 2.2164 38.2402 2.52938C40.7507 2.84236 43.2221 3.15618 45.6133 3.45581C50.4031 3.99247 54.8241 4.87466 58.6266 5.53734L63.8013 6.49048C65.3311 6.83935 66.6648 7.14148 67.7624 7.3902L71.2127 8.1856" stroke="#3F4568"/>
<g filter="url(#filter0_d_23_4001)">
<path d="M156.685 129H146.669C145.747 129 145 129.747 145 130.669V140.685C145 141.607 145.747 142.354 146.669 142.354H156.685C157.607 142.354 158.354 141.607 158.354 140.685V130.669C158.354 129.747 157.607 129 156.685 129Z" fill="#FDB51A"/>
</g>
<g filter="url(#filter1_d_23_4001)">
<path d="M66.4861 426.832H63.1476C62.2257 426.832 61.4784 427.579 61.4784 428.501V431.839C61.4784 432.761 62.2257 433.508 63.1476 433.508H66.4861C67.408 433.508 68.1553 432.761 68.1553 431.839V428.501C68.1553 427.579 67.408 426.832 66.4861 426.832Z" fill="white"/>
</g>
<g filter="url(#filter2_d_23_4001)">
<path d="M166.685 213H156.669C155.747 213 155 213.747 155 214.669V224.685C155 225.607 155.747 226.354 156.669 226.354H166.685C167.607 226.354 168.354 225.607 168.354 224.685V214.669C168.354 213.747 167.607 213 166.685 213Z" fill="white"/>
</g>
<g filter="url(#filter3_d_23_4001)">
<path d="M119.008 440H115.669C114.747 440 114 440.747 114 441.669V445.008C114 445.93 114.747 446.677 115.669 446.677H119.008C119.93 446.677 120.677 445.93 120.677 445.008V441.669C120.677 440.747 119.93 440 119.008 440Z" fill="white"/>
</g>
<defs>
<filter id="filter0_d_23_4001" x="130" y="114" width="43.3539" height="43.3539" filterUnits="userSpaceOnUse" color-interpolation-filters="sRGB">
<feFlood flood-opacity="0" result="BackgroundImageFix"/>
<feColorMatrix in="SourceAlpha" type="matrix" values="0 0 0 0 0 0 0 0 0 0 0 0 0 0 0 0 0 0 127 0" result="hardAlpha"/>
<feOffset/>
<feGaussianBlur stdDeviation="7.5"/>
<feColorMatrix type="matrix" values="0 0 0 0 0.992157 0 0 0 0 0.713726 0 0 0 0 0.105882 0 0 0 1 0"/>
<feBlend mode="normal" in2="BackgroundImageFix" result="effect1_dropShadow_23_4001"/>
<feBlend mode="normal" in="SourceGraphic" in2="effect1_dropShadow_23_4001" result="shape"/>
</filter>
<filter id="filter1_d_23_4001" x="51.4784" y="416.832" width="26.677" height="26.677" filterUnits="userSpaceOnUse" color-interpolation-filters="sRGB">
<feFlood flood-opacity="0" result="BackgroundImageFix"/>
<feColorMatrix in="SourceAlpha" type="matrix" values="0 0 0 0 0 0 0 0 0 0 0 0 0 0 0 0 0 0 127 0" result="hardAlpha"/>
<feOffset/>
<feGaussianBlur stdDeviation="5"/>
<feColorMatrix type="matrix" values="0 0 0 0 1 0 0 0 0 1 0 0 0 0 1 0 0 0 1 0"/>
<feBlend mode="normal" in2="BackgroundImageFix" result="effect1_dropShadow_23_4001"/>
<feBlend mode="normal" in="SourceGraphic" in2="effect1_dropShadow_23_4001" result="shape"/>
</filter>
<filter id="filter2_d_23_4001" x="140" y="198" width="43.3539" height="43.3539" filterUnits="userSpaceOnUse" color-interpolation-filters="sRGB">
<feFlood flood-opacity="0" result="BackgroundImageFix"/>
<feColorMatrix in="SourceAlpha" type="matrix" values="0 0 0 0 0 0 0 0 0 0 0 0 0 0 0 0 0 0 127 0" result="hardAlpha"/>
<feOffset/>
<feGaussianBlur stdDeviation="7.5"/>
<feColorMatrix type="matrix" values="0 0 0 0 1 0 0 0 0 1 0 0 0 0 1 0 0 0 1 0"/>
<feBlend mode="normal" in2="BackgroundImageFix" result="effect1_dropShadow_23_4001"/>
<feBlend mode="normal" in="SourceGraphic" in2="effect1_dropShadow_23_4001" result="shape"/>
</filter>
<filter id="filter3_d_23_4001" x="104" y="430" width="26.677" height="26.677" filterUnits="userSpaceOnUse" color-interpolation-filters="sRGB">
<feFlood flood-opacity="0" result="BackgroundImageFix"/>
<feColorMatrix in="SourceAlpha" type="matrix" values="0 0 0 0 0 0 0 0 0 0 0 0 0 0 0 0 0 0 127 0" result="hardAlpha"/>
<feOffset/>
<feGaussianBlur stdDeviation="5"/>
<feColorMatrix type="matrix" values="0 0 0 0 1 0 0 0 0 1 0 0 0 0 1 0 0 0 1 0"/>
<feBlend mode="normal" in2="BackgroundImageFix" result="effect1_dropShadow_23_4001"/>
<feBlend mode="normal" in="SourceGraphic" in2="effect1_dropShadow_23_4001" result="shape"/>
</filter>
</defs>
</svg>
