<svg width="274" height="538" viewBox="0 0 274 538" fill="none" xmlns="http://www.w3.org/2000/svg">
<path d="M205.404 475.336C205.404 475.336 204.66 475.156 203.309 474.68C201.953 474.222 199.964 473.549 197.433 472.692C194.881 471.895 191.874 470.673 188.412 469.306C184.919 468.018 181.121 466.218 176.946 464.341C167.501 459.905 158.393 454.785 149.694 449.023C139.738 442.398 130.332 434.98 121.568 426.843C103.509 410.327 89.1427 390.225 80.2607 374.241C79.0839 372.277 78.0907 370.319 77.1467 368.457L74.4459 363.18C72.8501 359.821 71.5573 356.843 70.4448 354.417C69.3322 351.991 68.6537 349.993 68.0986 348.676C67.5728 347.346 67.2941 346.636 67.2941 346.636" stroke="#3F4568"/>
<path d="M318.196 466.411C318.196 466.411 316.512 466.8 313.565 467.477C312.085 467.786 310.319 468.303 308.24 468.637L301.276 469.88C288.751 471.857 276.073 472.699 263.397 472.393C250.724 472.065 238.107 470.581 225.703 467.959L218.812 466.368C216.759 465.902 215.014 465.321 213.554 464.932L208.985 463.636" stroke="#3F4568"/>
<path d="M223.701 458.79L222.022 458.404L220.003 457.941L217.308 457.182C215.295 456.597 212.831 455.942 210.037 455.09C207.277 454.129 204.132 453.133 200.754 451.905C167.589 439.527 138.397 418.396 116.28 390.756C114.059 387.924 111.977 385.36 110.34 382.935C108.675 380.53 107.098 378.519 106.012 376.721C103.744 373.187 102.45 371.167 102.45 371.167" stroke="#3F4568"/>
<path d="M314.084 496.17L308.758 497.125C307.059 497.402 305.013 497.848 302.635 498.152L294.649 499.169C280.321 500.736 265.88 501.006 251.504 499.975C237.111 498.911 222.846 496.527 208.889 492.854L201.138 490.652C198.824 490.017 196.871 489.258 195.231 488.733L190.105 486.993" stroke="#3F4568"/>
<path d="M344.938 442.178C344.938 442.178 339.105 444.896 329.992 448.021C318.852 451.858 307.372 454.63 295.708 456.297C284.024 457.975 272.209 458.562 260.417 458.05C257.996 458.035 255.805 457.737 253.847 457.632C251.894 457.473 250.186 457.382 248.789 457.23L244.404 456.668" stroke="#3F4568"/>
<path d="M87.8691 434.418C87.8691 434.418 94.8231 435.123 101.502 435.497C108.334 435.779 114.912 435.711 114.912 435.711L115.452 436.225C115.798 436.567 116.322 437.051 117.015 437.637L122.699 442.562C123.859 443.6 125.173 444.655 126.584 445.747L130.994 449.212C132.503 450.44 134.142 451.605 135.812 452.782L140.861 456.37C144.294 458.701 147.826 460.887 151.098 462.991C154.473 464.93 157.622 466.741 160.32 468.293L169.555 473.035L169.906 473.994C170.143 474.59 170.483 475.439 170.89 476.458C171.717 478.5 172.856 481.239 174.061 484C174.676 485.386 175.29 486.771 175.866 488.069C176.481 489.337 177.056 490.521 177.549 491.536L179.252 494.928L182.664 496.272C184.817 497.179 187.995 498.202 191.782 499.493C210.337 505.745 229.601 509.652 249.126 511.123C253.108 511.418 256.425 511.715 258.752 511.719L262.408 511.814" stroke="#3F4568"/>
<path d="M272.368 443.755L270.456 443.808C269.847 443.815 269.109 443.866 268.262 443.853L265.415 443.769C263.329 443.678 260.891 443.732 258.296 443.53C255.702 443.309 252.928 443.145 250.165 442.888L242.083 441.863L235.093 440.616C233.036 440.307 231.369 439.825 230.185 439.574L228.331 439.145C228.331 439.145 225.666 433.817 223.531 428.266C222.446 425.512 221.418 422.863 220.722 420.781C220.049 418.7 219.599 417.314 219.599 417.314L217.988 416.767C216.951 416.376 215.365 415.983 213.461 415.161C208.106 413.142 202.87 410.819 197.779 408.204C185.018 401.966 169.205 390.964 156.036 377.213C149.583 370.502 143.73 363.238 138.545 355.506C134.043 348.765 130.087 341.676 126.713 334.306L124.608 329.666C124.018 328.158 123.462 326.731 122.939 325.386C121.806 322.731 121.093 320.317 120.413 318.362L119.515 315.747C119.264 314.983 119.109 314.316 118.951 313.785C118.652 312.717 118.49 312.147 118.49 312.147L116.219 311.305C114.8 310.753 112.63 309.976 110.225 308.912C104.112 306.29 98.1582 303.313 92.3928 299.996C90.7836 299.078 89.1686 298.128 87.572 297.168C86.0154 296.203 84.5256 295.219 83.0517 294.247C80.1255 292.298 77.3521 290.381 75.0085 288.677C70.4781 285.246 67.4326 282.734 67.4326 282.734" stroke="#3F4568"/>
<path d="M85.2309 402.371L81.5001 397.123C80.3459 395.575 79.1966 393.631 77.8729 391.615C76.5976 389.567 75.1186 387.451 73.8592 385.204C71.2785 380.746 68.6846 376.295 67.0003 372.812L64.8745 368.656C64.3587 367.655 64.0808 367.07 64.0808 367.07C64.0808 367.07 61.6804 366.136 58.0281 364.609C54.3758 363.082 49.4232 360.946 44.6592 358.492C42.2471 357.281 39.8184 356.025 37.5349 354.81C35.2347 353.6 33.2282 352.375 31.4255 351.331C27.8608 349.226 25.4638 347.733 25.4638 347.733C25.4638 347.733 25.0465 346.553 24.393 344.46L21.905 335.726C21.6518 334.822 21.3881 333.881 21.1138 332.904C20.8812 331.919 20.6419 330.902 20.396 329.853C19.9119 327.756 19.4011 325.545 18.8736 323.259C18.3119 320.978 17.8863 318.592 17.4548 316.165C17.0233 313.738 16.5876 311.274 16.1511 308.811C15.4316 303.861 14.809 298.894 14.2932 294.237C13.931 289.568 13.5679 285.207 13.356 281.468L13.043 269.001" stroke="#3F4568"/>
<path d="M392.143 482.934L388.907 484.792C386.872 486.021 383.84 487.546 380.215 489.404C371.334 493.911 362.193 497.888 352.84 501.311C347.685 503.026 342.586 504.923 337.655 506.219L330.587 508.215L324.183 509.718L318.763 510.957C317.142 511.291 315.719 511.521 314.55 511.739L310.878 512.398L307.679 516.284C305.732 518.607 303.041 521.536 300.251 524.547C297.461 527.558 294.56 530.542 292.322 532.643L288.552 536.217C288.552 536.217 287.272 536.31 285.031 536.477C282.792 536.692 279.592 536.753 275.75 536.854L269.545 536.994C267.345 537.026 265.024 536.922 262.622 536.88L255.219 536.676C252.7 536.528 250.14 536.319 247.581 536.131C245.023 535.912 242.459 535.784 239.949 535.471L232.578 534.544C227.787 534.008 223.365 533.125 219.565 532.464L214.39 531.51C212.86 531.162 211.526 530.859 210.427 530.61L206.978 529.816" stroke="#3F4568"/>
<path d="M143.973 90.4407L144.97 89.7329C145.628 89.2864 146.547 88.5645 147.815 87.7799L152.328 84.8838C154.069 83.7587 156.029 82.4868 158.263 81.2532C168.992 74.8889 180.266 69.4924 191.952 65.1275C203.636 60.76 215.67 57.3938 227.924 55.0653L234.775 53.8435C236.821 53.5155 238.615 53.3344 240.093 53.1332C243.042 52.7576 244.729 52.5448 244.729 52.5448" stroke="#3F4568"/>
<path d="M218.998 71.5949L223.627 70.5283C225.106 70.2203 226.873 69.7045 228.954 69.369L235.916 68.1263C248.44 66.1484 261.118 65.3073 273.795 65.6132C286.469 65.9402 299.087 67.4248 311.49 70.0484L318.38 71.6342C320.433 72.1007 322.179 72.6833 323.638 73.0705L328.209 74.3684" stroke="#3F4568"/>
<path d="M93.7632 164.813L94.6704 163.259L97.4163 158.979C98.5948 157.132 100.004 154.874 101.817 152.419C103.594 149.939 105.527 147.086 107.91 144.178L111.527 139.57L115.633 134.833L117.772 132.36L120.076 129.927C121.638 128.295 123.23 126.629 124.854 124.929C138.762 111.052 154.598 99.2527 171.874 89.8956C176.07 87.7965 180.038 85.5814 184.003 83.9038C185.967 83.0267 187.862 82.1386 189.719 81.3365L195.169 79.1899C198.634 77.7385 201.929 76.7303 204.81 75.7354C207.682 74.703 210.251 74.0069 212.358 73.4143L217.248 72.0247C218.379 71.7117 218.995 71.5957 218.995 71.5957" stroke="#3F4568"/>
<path d="M66.7048 155.426L70.6276 148.64C71.973 146.54 73.6055 143.992 75.4783 141.067C77.3512 138.143 79.7107 135.011 82.1628 131.511C83.3814 129.759 84.8236 128.057 86.2241 126.23C87.6663 124.435 89.0785 122.513 90.6818 120.663C93.8909 116.968 97.1993 113.001 100.957 109.202C104.568 105.264 108.635 101.531 112.69 97.6576C116.926 93.9853 121.155 90.1644 125.702 86.7241C130.118 83.1219 134.842 79.922 139.418 76.6828C144.14 73.6573 148.74 70.6001 153.426 68.0245C158.011 65.2702 162.663 63.0167 167.017 60.7708C169.198 59.6549 171.403 58.7435 173.493 57.772C175.603 56.8456 177.603 55.8524 179.598 55.0845C183.585 53.538 187.197 52.0048 190.484 50.8772L199.015 47.9944C201.392 47.2433 203.292 46.7508 204.573 46.3719L206.545 45.8119" stroke="#3F4568"/>
<path d="M223.107 41.8341L228.431 40.8793C230.129 40.6022 232.176 40.1565 234.553 39.8527L242.54 38.837C256.87 37.2697 271.312 36.9996 285.69 38.0299C300.083 39.0944 314.349 41.4786 328.306 45.1525L336.056 47.3526C338.371 47.9886 340.324 48.7489 341.964 49.2722L347.089 51.0107" stroke="#3F4568"/>
<path d="M192.251 95.8247C192.251 95.8247 198.083 93.1072 207.198 89.9824C218.338 86.1446 229.817 83.3735 241.481 81.7063C253.165 80.0288 264.98 79.442 276.774 79.9536C279.194 79.9686 281.386 80.2683 283.342 80.3768C285.295 80.5362 287.003 80.6271 288.401 80.7774L292.784 81.3407" stroke="#3F4568"/>
<path d="M264.821 94.249L266.734 94.1973C267.342 94.1898 268.081 94.1389 268.928 94.1539L271.773 94.2373C273.86 94.3267 276.298 94.2732 278.894 94.4769C281.488 94.6972 284.262 94.8616 287.024 95.1179L295.106 96.1428L302.096 97.3897C304.153 97.6993 305.82 98.1826 307.004 98.4321L308.861 98.8611C308.861 98.8611 311.525 104.189 313.66 109.741C314.745 112.495 315.771 115.143 316.469 117.224L317.591 120.692L319.201 121.239C320.237 121.63 321.826 122.023 323.729 122.845C329.084 124.864 334.32 127.187 339.411 129.802C352.171 136.04 367.983 147.043 381.153 160.792C387.606 167.501 393.46 174.763 398.646 182.493C403.148 189.233 407.104 196.322 410.478 203.692C411.212 205.309 411.915 206.863 412.585 208.332C413.173 209.84 413.73 211.267 414.254 212.612C415.387 215.269 416.1 217.683 416.78 219.638C417.114 220.617 417.418 221.491 417.678 222.251C417.939 223.012 418.085 223.683 418.242 224.215L418.702 225.853L420.974 226.693C422.393 227.246 424.563 228.022 426.969 229.086C433.082 231.707 439.036 234.684 444.801 238C446.41 238.918 448.026 239.867 449.622 240.826C451.178 241.791 452.67 242.777 454.142 243.747C457.068 245.696 459.842 247.613 462.185 249.319C466.715 252.748 469.761 255.26 469.761 255.26" stroke="#3F4568"/>
<path d="M213.056 108.085L209.995 109.114L202.078 112.253C194.169 115.688 186.507 119.669 179.15 124.168C171.798 128.704 164.811 133.808 158.253 139.432C156.918 140.588 155.691 141.647 154.605 142.584C153.52 143.522 152.662 144.434 151.901 145.132L149.555 147.365C149.555 147.365 148.136 147.16 146.012 146.934C143.916 146.735 141.088 146.5 138.195 146.318C135.302 146.136 132.353 146 130.205 146.008L126.551 146L125.164 147.599L123.572 149.435C122.992 150.173 122.34 151.005 121.628 151.914C118.718 155.498 115.07 160.462 111.67 165.59C110.84 166.884 110.011 168.177 109.194 169.454C108.359 170.72 107.564 171.98 106.873 173.246C105.454 175.756 104.06 178.059 102.974 180.095L99.4687 186.939C99.4687 186.939 98.9187 187.07 98.0106 187.337L94.2248 188.477C92.6499 188.964 90.8028 189.551 88.8081 190.214C86.8134 190.876 84.6559 191.61 82.5985 192.427C78.438 194.038 74.1622 195.798 70.9973 197.223L65.8119 199.705C65.8119 199.705 65.4588 200.749 64.8387 202.578C64.5441 203.497 64.1268 204.594 63.7537 205.884C63.3806 207.175 62.9716 208.639 62.5184 210.224C62.0652 211.81 61.5787 213.539 61.0612 215.364C60.6322 217.21 60.1807 219.157 59.7141 221.171C58.6967 225.185 57.9739 229.537 57.2028 233.881C56.7704 236.046 56.5192 238.237 56.2463 240.391C55.9734 242.545 55.7038 244.665 55.445 246.715C55.1229 250.837 54.8258 254.685 54.5687 257.982L54.2899 268.999" stroke="#3F4568"/>
<path d="M30.6677 262.753C30.6677 262.753 30.6944 261.732 30.7403 259.948C30.7653 259.054 30.7954 257.97 30.8313 256.727C30.9239 255.484 31.0266 254.083 31.1401 252.554C31.5106 246.435 32.3978 238.295 33.7115 230.218C34.0721 228.202 34.431 226.188 34.784 224.203C34.9643 223.212 35.1421 222.231 35.3173 221.258C35.5332 220.294 35.7472 219.344 35.9591 218.407C36.8413 214.672 37.5683 211.161 38.3879 208.2L41.1872 198.352C41.1872 198.352 38.4622 192.309 35.9032 185.878C34.5678 182.655 33.5329 179.451 32.6582 176.975L31.2711 172.835L31.8119 171.472C32.1683 170.586 32.6624 169.272 33.4152 167.654C34.1497 166.027 35.0403 164.052 36.0627 161.786C36.5779 160.653 37.1251 159.452 37.7043 158.182L39.6841 154.265C41.1029 151.555 42.5326 148.564 44.2594 145.516C46.0121 142.482 47.8575 139.283 49.7679 135.972C51.8286 132.757 53.9586 129.433 56.1236 126.057C58.4121 122.765 60.7866 119.455 63.1552 116.141C72.0838 104.166 82.0474 92.9992 92.9311 82.7688C101.825 74.3976 108.264 69.394 108.264 69.394" stroke="#3F4568"/>
<path d="M89.9456 259.034L90.428 252.726C90.5115 250.828 90.8545 248.641 91.145 246.29C91.4354 243.939 91.71 241.422 92.2175 238.945C92.699 236.468 93.0312 233.958 93.5804 231.656C94.1137 229.351 94.6095 227.198 95.036 225.354C95.4349 223.502 95.9607 222.01 96.2353 220.942L96.7094 219.272C96.7094 219.272 98.7592 218.354 101.788 217.102C104.931 215.881 109.091 214.369 113.161 213.035C117.289 211.711 121.507 210.627 124.546 209.864C126.075 209.484 127.333 209.186 128.267 209.004L129.704 208.715L130.584 206.781C131.174 205.565 131.846 203.747 132.97 201.715C134.075 199.674 135.162 197.187 136.694 194.715C137.413 193.457 138.157 192.155 138.914 190.832C139.711 189.532 140.583 188.245 141.406 186.938C142.997 184.277 144.911 181.826 146.556 179.432C148.253 177.072 150.023 175.008 151.417 173.145L156.475 167.26" stroke="#3F4568"/>
<path d="M145.046 55.0687L148.284 53.2108C150.317 51.9814 153.349 50.4566 156.976 48.5987C165.857 44.0916 174.999 40.1155 184.351 36.6912C189.507 34.976 194.607 33.0798 199.536 31.7836L206.604 29.7872L213.009 28.2849L218.429 27.0438C220.05 26.71 221.473 26.4805 222.642 26.2618L226.314 25.6049L229.512 21.7181C231.461 19.3937 234.15 16.4667 236.941 13.4554C239.731 10.4441 242.632 7.45864 244.869 5.35957L248.642 1.7874L252.161 1.527C254.402 1.3125 257.602 1.24991 261.442 1.14892L267.645 1.00619C269.845 0.973644 272.167 1.07797 274.567 1.1197L281.97 1.32419C284.489 1.47275 287.05 1.6814 289.609 1.86919C292.166 2.08786 294.73 2.2164 297.24 2.52938C299.751 2.84236 302.222 3.15618 304.613 3.45581C309.403 3.99247 313.824 4.87466 317.627 5.53734L322.801 6.49048C324.331 6.83935 325.665 7.14148 326.762 7.3902L330.213 8.1856" stroke="#3F4568"/>
<g filter="url(#filter0_d_23_4002)">
<path d="M15.0077 264.915H11.6692C10.7473 264.915 10 265.663 10 266.585V269.923C10 270.845 10.7473 271.592 11.6692 271.592H15.0077C15.9296 271.592 16.677 270.845 16.677 269.923V266.585C16.677 265.663 15.9296 264.915 15.0077 264.915Z" fill="#FDB51A"/>
</g>
<g filter="url(#filter1_d_23_4002)">
<path d="M86.7851 400.958H83.4466C82.5247 400.958 81.7773 401.706 81.7773 402.627V405.966C81.7773 406.888 82.5247 407.635 83.4466 407.635H86.7851C87.707 407.635 88.4543 406.888 88.4543 405.966V402.627C88.4543 401.706 87.707 400.958 86.7851 400.958Z" fill="#FDB51A"/>
</g>
<g filter="url(#filter2_d_23_4002)">
<path d="M70.9272 149.738H64.2503C63.3284 149.738 62.5811 150.485 62.5811 151.407V158.084C62.5811 159.006 63.3284 159.753 64.2503 159.753H70.9272C71.8491 159.753 72.5965 159.006 72.5965 158.084V151.407C72.5965 150.485 71.8491 149.738 70.9272 149.738Z" fill="#FDB51A"/>
</g>
<g filter="url(#filter3_d_23_4002)">
<path d="M246.197 453.54H242.859C241.937 453.54 241.19 454.287 241.19 455.209V458.547C241.19 459.469 241.937 460.217 242.859 460.217H246.197C247.119 460.217 247.867 459.469 247.867 458.547V455.209C247.867 454.287 247.119 453.54 246.197 453.54Z" fill="#FDB51A"/>
</g>
<g filter="url(#filter4_d_23_4002)">
<path d="M32.5348 261.577H29.1963C28.2744 261.577 27.5271 262.324 27.5271 263.246V266.584C27.5271 267.506 28.2744 268.254 29.1963 268.254H32.5348C33.4567 268.254 34.2041 267.506 34.2041 266.584V263.246C34.2041 262.324 33.4567 261.577 32.5348 261.577Z" fill="white"/>
</g>
<g filter="url(#filter5_d_23_4002)">
<path d="M110.154 66.2759H106.816C105.894 66.2759 105.147 67.0232 105.147 67.9451V71.2836C105.147 72.2055 105.894 72.9528 106.816 72.9528H110.154C111.076 72.9528 111.824 72.2055 111.824 71.2836V67.9451C111.824 67.0232 111.076 66.2759 110.154 66.2759Z" fill="white"/>
</g>
<g filter="url(#filter6_d_23_4002)">
<path d="M225.332 38.7334H221.993C221.071 38.7334 220.324 39.4807 220.324 40.4026V43.7411C220.324 44.663 221.071 45.4104 221.993 45.4104H225.332C226.254 45.4104 227.001 44.663 227.001 43.7411V40.4026C227.001 39.4807 226.254 38.7334 225.332 38.7334Z" fill="white"/>
</g>
<g filter="url(#filter7_d_23_4002)">
<path d="M161.066 370.912H151.051C150.129 370.912 149.381 371.659 149.381 372.581V382.597C149.381 383.519 150.129 384.266 151.051 384.266H161.066C161.988 384.266 162.735 383.519 162.735 382.597V372.581C162.735 371.659 161.988 370.912 161.066 370.912Z" fill="white"/>
</g>
<g filter="url(#filter8_d_23_4002)">
<path d="M73.431 276.6H63.4156C62.4937 276.6 61.7463 277.347 61.7463 278.269V288.285C61.7463 289.206 62.4937 289.954 63.4156 289.954H73.431C74.3529 289.954 75.1002 289.206 75.1002 288.285V278.269C75.1002 277.347 74.3529 276.6 73.431 276.6Z" fill="white"/>
</g>
<defs>
<filter id="filter0_d_23_4002" x="0" y="254.915" width="26.6769" height="26.677" filterUnits="userSpaceOnUse" color-interpolation-filters="sRGB">
<feFlood flood-opacity="0" result="BackgroundImageFix"/>
<feColorMatrix in="SourceAlpha" type="matrix" values="0 0 0 0 0 0 0 0 0 0 0 0 0 0 0 0 0 0 127 0" result="hardAlpha"/>
<feOffset/>
<feGaussianBlur stdDeviation="5"/>
<feColorMatrix type="matrix" values="0 0 0 0 0.992157 0 0 0 0 0.713726 0 0 0 0 0.105882 0 0 0 1 0"/>
<feBlend mode="normal" in2="BackgroundImageFix" result="effect1_dropShadow_23_4002"/>
<feBlend mode="normal" in="SourceGraphic" in2="effect1_dropShadow_23_4002" result="shape"/>
</filter>
<filter id="filter1_d_23_4002" x="71.7773" y="390.958" width="26.6769" height="26.677" filterUnits="userSpaceOnUse" color-interpolation-filters="sRGB">
<feFlood flood-opacity="0" result="BackgroundImageFix"/>
<feColorMatrix in="SourceAlpha" type="matrix" values="0 0 0 0 0 0 0 0 0 0 0 0 0 0 0 0 0 0 127 0" result="hardAlpha"/>
<feOffset/>
<feGaussianBlur stdDeviation="5"/>
<feColorMatrix type="matrix" values="0 0 0 0 0.992157 0 0 0 0 0.713726 0 0 0 0 0.105882 0 0 0 1 0"/>
<feBlend mode="normal" in2="BackgroundImageFix" result="effect1_dropShadow_23_4002"/>
<feBlend mode="normal" in="SourceGraphic" in2="effect1_dropShadow_23_4002" result="shape"/>
</filter>
<filter id="filter2_d_23_4002" x="47.5811" y="134.738" width="40.0154" height="40.0154" filterUnits="userSpaceOnUse" color-interpolation-filters="sRGB">
<feFlood flood-opacity="0" result="BackgroundImageFix"/>
<feColorMatrix in="SourceAlpha" type="matrix" values="0 0 0 0 0 0 0 0 0 0 0 0 0 0 0 0 0 0 127 0" result="hardAlpha"/>
<feOffset/>
<feGaussianBlur stdDeviation="7.5"/>
<feColorMatrix type="matrix" values="0 0 0 0 0.992157 0 0 0 0 0.713726 0 0 0 0 0.105882 0 0 0 1 0"/>
<feBlend mode="normal" in2="BackgroundImageFix" result="effect1_dropShadow_23_4002"/>
<feBlend mode="normal" in="SourceGraphic" in2="effect1_dropShadow_23_4002" result="shape"/>
</filter>
<filter id="filter3_d_23_4002" x="231.19" y="443.54" width="26.6769" height="26.677" filterUnits="userSpaceOnUse" color-interpolation-filters="sRGB">
<feFlood flood-opacity="0" result="BackgroundImageFix"/>
<feColorMatrix in="SourceAlpha" type="matrix" values="0 0 0 0 0 0 0 0 0 0 0 0 0 0 0 0 0 0 127 0" result="hardAlpha"/>
<feOffset/>
<feGaussianBlur stdDeviation="5"/>
<feColorMatrix type="matrix" values="0 0 0 0 0.992157 0 0 0 0 0.713726 0 0 0 0 0.105882 0 0 0 1 0"/>
<feBlend mode="normal" in2="BackgroundImageFix" result="effect1_dropShadow_23_4002"/>
<feBlend mode="normal" in="SourceGraphic" in2="effect1_dropShadow_23_4002" result="shape"/>
</filter>
<filter id="filter4_d_23_4002" x="17.5271" y="251.577" width="26.6769" height="26.677" filterUnits="userSpaceOnUse" color-interpolation-filters="sRGB">
<feFlood flood-opacity="0" result="BackgroundImageFix"/>
<feColorMatrix in="SourceAlpha" type="matrix" values="0 0 0 0 0 0 0 0 0 0 0 0 0 0 0 0 0 0 127 0" result="hardAlpha"/>
<feOffset/>
<feGaussianBlur stdDeviation="5"/>
<feColorMatrix type="matrix" values="0 0 0 0 1 0 0 0 0 1 0 0 0 0 1 0 0 0 1 0"/>
<feBlend mode="normal" in2="BackgroundImageFix" result="effect1_dropShadow_23_4002"/>
<feBlend mode="normal" in="SourceGraphic" in2="effect1_dropShadow_23_4002" result="shape"/>
</filter>
<filter id="filter5_d_23_4002" x="95.1466" y="56.2759" width="26.6769" height="26.677" filterUnits="userSpaceOnUse" color-interpolation-filters="sRGB">
<feFlood flood-opacity="0" result="BackgroundImageFix"/>
<feColorMatrix in="SourceAlpha" type="matrix" values="0 0 0 0 0 0 0 0 0 0 0 0 0 0 0 0 0 0 127 0" result="hardAlpha"/>
<feOffset/>
<feGaussianBlur stdDeviation="5"/>
<feColorMatrix type="matrix" values="0 0 0 0 1 0 0 0 0 1 0 0 0 0 1 0 0 0 1 0"/>
<feBlend mode="normal" in2="BackgroundImageFix" result="effect1_dropShadow_23_4002"/>
<feBlend mode="normal" in="SourceGraphic" in2="effect1_dropShadow_23_4002" result="shape"/>
</filter>
<filter id="filter6_d_23_4002" x="210.324" y="28.7334" width="26.6769" height="26.677" filterUnits="userSpaceOnUse" color-interpolation-filters="sRGB">
<feFlood flood-opacity="0" result="BackgroundImageFix"/>
<feColorMatrix in="SourceAlpha" type="matrix" values="0 0 0 0 0 0 0 0 0 0 0 0 0 0 0 0 0 0 127 0" result="hardAlpha"/>
<feOffset/>
<feGaussianBlur stdDeviation="5"/>
<feColorMatrix type="matrix" values="0 0 0 0 1 0 0 0 0 1 0 0 0 0 1 0 0 0 1 0"/>
<feBlend mode="normal" in2="BackgroundImageFix" result="effect1_dropShadow_23_4002"/>
<feBlend mode="normal" in="SourceGraphic" in2="effect1_dropShadow_23_4002" result="shape"/>
</filter>
<filter id="filter7_d_23_4002" x="134.381" y="355.912" width="43.3539" height="43.3539" filterUnits="userSpaceOnUse" color-interpolation-filters="sRGB">
<feFlood flood-opacity="0" result="BackgroundImageFix"/>
<feColorMatrix in="SourceAlpha" type="matrix" values="0 0 0 0 0 0 0 0 0 0 0 0 0 0 0 0 0 0 127 0" result="hardAlpha"/>
<feOffset/>
<feGaussianBlur stdDeviation="7.5"/>
<feColorMatrix type="matrix" values="0 0 0 0 1 0 0 0 0 1 0 0 0 0 1 0 0 0 1 0"/>
<feBlend mode="normal" in2="BackgroundImageFix" result="effect1_dropShadow_23_4002"/>
<feBlend mode="normal" in="SourceGraphic" in2="effect1_dropShadow_23_4002" result="shape"/>
</filter>
<filter id="filter8_d_23_4002" x="46.7463" y="261.6" width="43.3539" height="43.3539" filterUnits="userSpaceOnUse" color-interpolation-filters="sRGB">
<feFlood flood-opacity="0" result="BackgroundImageFix"/>
<feColorMatrix in="SourceAlpha" type="matrix" values="0 0 0 0 0 0 0 0 0 0 0 0 0 0 0 0 0 0 127 0" result="hardAlpha"/>
<feOffset/>
<feGaussianBlur stdDeviation="7.5"/>
<feColorMatrix type="matrix" values="0 0 0 0 1 0 0 0 0 1 0 0 0 0 1 0 0 0 1 0"/>
<feBlend mode="normal" in2="BackgroundImageFix" result="effect1_dropShadow_23_4002"/>
<feBlend mode="normal" in="SourceGraphic" in2="effect1_dropShadow_23_4002" result="shape"/>
</filter>
</defs>
</svg>
