<svg width="430" height="477" viewBox="0 0 430 477" fill="none" xmlns="http://www.w3.org/2000/svg">
<path d="M232.585 475C232.263 475 231.954 474.872 231.726 474.644C231.498 474.416 231.37 474.106 231.37 473.784V423.144C231.369 422.986 231.401 422.831 231.463 422.686C231.525 422.542 231.615 422.411 231.729 422.303C231.842 422.194 231.977 422.11 232.124 422.055C232.271 422 232.428 421.975 232.585 421.983C232.893 421.983 233.188 422.105 233.406 422.323C233.623 422.54 233.746 422.836 233.746 423.144V473.784C233.746 474.097 233.625 474.398 233.409 474.625C233.193 474.851 232.898 474.986 232.585 475Z" fill="url(#paint0_linear_107_922)"/>
<path d="M96.4268 382.841C96.119 382.841 95.8238 382.719 95.6062 382.501C95.3885 382.284 95.2664 381.988 95.2664 381.68V344.861C95.2664 344.553 95.3885 344.258 95.6062 344.04C95.8238 343.823 96.119 343.7 96.4268 343.7C96.7345 343.7 97.0297 343.823 97.2473 344.04C97.465 344.258 97.5871 344.553 97.5871 344.861V381.68C97.5871 381.988 97.465 382.284 97.2473 382.501C97.0297 382.719 96.7345 382.841 96.4268 382.841Z" fill="#323457"/>
<path d="M381.232 337.564C381.027 337.56 380.824 337.508 380.642 337.412C380.46 337.316 380.303 337.179 380.182 337.011C380.039 336.738 380.005 336.42 380.087 336.122C380.169 335.824 380.361 335.569 380.624 335.408L428.203 307.766C428.484 307.619 428.811 307.583 429.117 307.665C429.424 307.747 429.689 307.941 429.86 308.208C430.004 308.482 430.038 308.8 429.956 309.097C429.874 309.395 429.682 309.65 429.418 309.811L381.84 337.453C381.65 337.54 381.441 337.578 381.232 337.564Z" fill="url(#paint1_linear_107_922)"/>
<path d="M393.168 329.548L369.959 316.169L346.75 329.548L369.959 342.927L393.168 329.548Z" fill="url(#paint2_linear_107_922)"/>
<path d="M369.959 368.412L346.75 355.034V329.548L369.959 342.927V368.412Z" fill="url(#paint3_linear_107_922)"/>
<path d="M393.168 355.034L369.959 368.412V342.927L393.168 329.548V355.034Z" fill="#42376F"/>
<path d="M331.057 365.04C330.856 365.047 330.658 364.999 330.483 364.902C330.308 364.804 330.162 364.661 330.062 364.487C329.984 364.353 329.933 364.205 329.913 364.052C329.893 363.898 329.904 363.742 329.945 363.592C329.986 363.443 330.057 363.303 330.153 363.182C330.249 363.06 330.368 362.959 330.504 362.884L356.973 347.57C357.244 347.416 357.565 347.377 357.866 347.46C358.167 347.542 358.422 347.741 358.576 348.013C358.73 348.284 358.769 348.605 358.687 348.906C358.604 349.207 358.405 349.462 358.134 349.616L331.665 364.93C331.477 365.023 331.266 365.062 331.057 365.04Z" fill="#323457"/>
<path d="M296.851 184.096L233.801 147.663L170.695 184.096L233.801 220.528L296.851 184.096Z" fill="url(#paint4_linear_107_922)"/>
<path d="M233.801 289.799L170.695 253.367V184.096L233.801 220.528V289.799Z" fill="url(#paint5_linear_107_922)"/>
<path d="M296.851 253.367L233.801 289.799V220.528L296.851 184.096V253.367Z" fill="#42376F"/>
<path d="M255.849 177.019L219.378 155.956L182.907 177.019L219.378 198.083L255.849 177.019Z" fill="#9387C1"/>
<path d="M270.217 115.046L233.801 93.9828L197.33 115.046L233.801 136.109L270.217 115.046Z" fill="url(#paint6_linear_107_922)"/>
<path d="M233.801 176.135L197.33 155.072V115.046L233.801 136.109V176.135Z" fill="url(#paint7_linear_107_922)"/>
<path d="M270.217 155.072L233.801 176.135V136.109L270.217 115.046V155.072Z" fill="#42376F"/>
<path d="M349.79 248.833L301.88 221.136L253.971 248.833L301.88 276.475L349.79 248.833Z" fill="#9387C1"/>
<path d="M301.88 329.106L253.971 301.408V248.833L301.88 276.475V329.106Z" fill="url(#paint8_linear_107_922)"/>
<path d="M349.79 301.408L301.88 329.106V276.475L349.79 248.833V301.408Z" fill="#42376F"/>
<path d="M213.024 249.165L165.114 221.468L117.205 249.165L165.114 276.807L213.024 249.165Z" fill="#9387C1"/>
<path d="M165.114 329.437L117.205 301.795V249.165L165.114 276.807V329.437Z" fill="url(#paint9_linear_107_922)"/>
<path d="M213.024 301.795L165.114 329.437V276.807L213.024 249.165V301.795Z" fill="#42376F"/>
<path d="M281.102 288.472L233.193 260.83L185.283 288.472L233.193 316.169L281.102 288.472Z" fill="url(#paint10_linear_107_922)"/>
<path d="M233.193 368.744L185.283 341.102V288.472L233.193 316.169V368.744Z" fill="url(#paint11_linear_107_922)"/>
<path d="M281.103 341.102L233.193 368.744V316.169L281.103 288.472V341.102Z" fill="#42376F"/>
<path d="M185.283 288.472L216.836 306.716L252.92 285.873L221.367 267.63L185.283 288.472Z" fill="#9387C1"/>
<g filter="url(#filter0_d_107_922)">
<path d="M270.051 223.9L233.193 202.616L196.335 223.9L233.193 245.184L270.051 223.9Z" fill="#FFF6E3"/>
<path d="M233.193 285.653L196.335 264.368V223.9L233.193 245.185V285.653Z" fill="#D89E03"/>
<path d="M270.051 264.368L233.193 285.653V245.185L270.051 223.9V264.368Z" fill="#FFCD48"/>
</g>
<path d="M349.182 327.834L301.272 300.137L253.362 327.834L301.272 355.476L349.182 327.834Z" fill="#9387C1"/>
<path d="M301.272 408.106L253.362 380.409V327.834L301.272 355.476V408.106Z" fill="url(#paint12_linear_107_922)"/>
<path d="M349.182 380.409L301.272 408.106V355.476L349.182 327.834V380.409Z" fill="#42376F"/>
<path d="M411.238 423.309L389.797 410.926L368.357 423.309L389.797 435.693L411.238 423.309Z" fill="url(#paint13_linear_107_922)"/>
<path d="M389.797 459.244L368.357 446.86V423.309L389.797 435.693V459.244Z" fill="url(#paint14_linear_107_922)"/>
<path d="M411.238 446.86L389.797 459.244V435.693L411.238 423.309V446.86Z" fill="#42376F"/>
<path d="M42.8256 252.924L21.4403 240.541L-0.000244141 252.924L21.4403 265.308L42.8256 252.924Z" fill="url(#paint15_linear_107_922)"/>
<path d="M21.4403 288.859L-0.000244141 276.475V252.924L21.4403 265.308V288.859Z" fill="url(#paint16_linear_107_922)"/>
<path d="M42.8255 276.475L21.4402 288.859V265.308L42.8255 252.924V276.475Z" fill="#42376F"/>
<g filter="url(#filter1_d_107_922)">
<path d="M96.4267 438.955L80.3463 429.667L64.2659 438.955L80.3463 448.242L96.4267 438.955Z" fill="#FFF6E3"/>
<path d="M80.3463 465.878L64.2659 456.59V438.955L80.3463 448.243V465.878Z" fill="#D89E03"/>
<path d="M96.4268 456.59L80.3464 465.878V448.243L96.4268 438.955V456.59Z" fill="#FFCD48"/>
</g>
<g filter="url(#filter2_d_107_922)">
<path d="M322.603 170.053L306.522 160.766L290.442 170.053L306.522 179.341L322.603 170.053Z" fill="#FFF6E3"/>
<path d="M306.522 196.977L290.442 187.689V170.054L306.522 179.341V196.977Z" fill="#D89E03"/>
<path d="M322.602 187.689L306.522 196.977V179.341L322.602 170.054V187.689Z" fill="#FFCD48"/>
</g>
<path d="M137.374 300.468L96.4267 276.807L55.4797 300.468L96.4267 324.13L137.374 300.468Z" fill="url(#paint17_linear_107_922)"/>
<path d="M96.4267 369.131L55.4797 345.469V300.468L96.4267 324.13V369.131Z" fill="url(#paint18_linear_107_922)"/>
<path d="M137.374 345.469L96.427 369.131V324.13L137.374 300.468V345.469Z" fill="#42376F"/>
<path d="M212.416 328.166L164.506 300.469L116.596 328.166L164.506 355.808L212.416 328.166Z" fill="#9387C1"/>
<path d="M164.506 408.438L116.596 380.741V328.166L164.506 355.808V408.438Z" fill="url(#paint19_linear_107_922)"/>
<path d="M212.416 380.741L164.506 408.438V355.808L212.416 328.166V380.741Z" fill="#42376F"/>
<path d="M234.85 396.054C234.652 396.111 234.441 396.111 234.243 396.054L187.825 369.242C187.694 369.162 187.58 369.058 187.489 368.934C187.399 368.81 187.333 368.67 187.298 368.521C187.262 368.372 187.255 368.217 187.28 368.065C187.304 367.914 187.358 367.769 187.438 367.638C187.513 367.503 187.614 367.383 187.736 367.287C187.857 367.191 187.997 367.12 188.146 367.079C188.295 367.038 188.452 367.027 188.605 367.047C188.759 367.067 188.907 367.118 189.041 367.196L235.403 394.009C235.539 394.084 235.658 394.185 235.754 394.306C235.85 394.428 235.921 394.568 235.962 394.717C236.003 394.867 236.014 395.023 235.994 395.176C235.974 395.33 235.923 395.478 235.845 395.612C235.728 395.762 235.576 395.88 235.403 395.957C235.229 396.034 235.04 396.068 234.85 396.054Z" fill="#323457"/>
<g filter="url(#filter3_d_107_922)">
<path d="M271.322 382.841L232.585 360.452L193.849 382.841L232.585 405.232L271.322 382.841Z" fill="#FFF6E3"/>
<path d="M232.585 447.745L193.849 425.41V382.842L232.585 405.232V447.745Z" fill="#D89E03"/>
<path d="M271.322 425.41L232.585 447.745V405.232L271.322 382.842V425.41Z" fill="#FFCD48"/>
</g>
<path d="M165.059 249.828C164.906 249.828 164.755 249.798 164.614 249.74C164.474 249.681 164.346 249.596 164.238 249.488C164.13 249.38 164.045 249.252 163.986 249.112C163.928 248.971 163.898 248.82 163.898 248.667V60.2594C163.86 60.082 163.861 59.8981 163.903 59.7214C163.945 59.5447 164.026 59.3796 164.14 59.2382C164.254 59.0969 164.398 58.9828 164.562 58.9044C164.725 58.8261 164.905 58.7854 165.086 58.7854C165.268 58.7854 165.447 58.8261 165.611 58.9044C165.774 58.9828 165.918 59.0969 166.032 59.2382C166.146 59.3796 166.227 59.5447 166.269 59.7214C166.311 59.8981 166.313 60.082 166.274 60.2594V248.667C166.274 248.824 166.243 248.98 166.181 249.125C166.119 249.269 166.029 249.4 165.915 249.508C165.801 249.617 165.667 249.701 165.52 249.756C165.372 249.811 165.216 249.836 165.059 249.828Z" fill="#323457"/>
<path d="M96.4268 300.911C96.1233 300.897 95.8359 300.77 95.6212 300.556C95.4064 300.341 95.2799 300.053 95.2664 299.75V163.419C95.2664 163.111 95.3885 162.816 95.6062 162.598C95.8238 162.381 96.119 162.258 96.4268 162.258C96.5837 162.251 96.7406 162.275 96.8878 162.33C97.035 162.385 97.1696 162.47 97.2833 162.578C97.3969 162.687 97.4875 162.817 97.5492 162.962C97.6109 163.107 97.6426 163.262 97.6425 163.419V299.75C97.6282 300.063 97.4939 300.358 97.2674 300.574C97.0409 300.79 96.7398 300.911 96.4268 300.911Z" fill="#323457"/>
<path d="M200.701 20.5657L165.114 3.05176e-05L129.472 20.5657L165.114 41.1313L200.701 20.5657Z" fill="url(#paint20_linear_107_922)"/>
<path d="M165.114 80.2724L129.472 59.7067V20.5657L165.114 41.1313V80.2724Z" fill="url(#paint21_linear_107_922)"/>
<path d="M200.7 59.7067L165.114 80.2724V41.1313L200.7 20.5657V59.7067Z" fill="#42376F"/>
<path d="M21.3851 367.417C21.1848 367.424 20.9864 367.376 20.8112 367.279C20.636 367.181 20.4906 367.038 20.3905 366.864C20.3123 366.731 20.2616 366.583 20.2415 366.429C20.2214 366.275 20.2323 366.119 20.2735 365.97C20.3147 365.82 20.3854 365.68 20.4814 365.559C20.5774 365.437 20.6968 365.336 20.8326 365.261L75.318 333.749C75.4517 333.671 75.5998 333.62 75.7534 333.6C75.907 333.58 76.0632 333.591 76.2126 333.632C76.3619 333.674 76.5014 333.744 76.623 333.84C76.7446 333.936 76.8458 334.056 76.9205 334.192C76.9988 334.325 77.0493 334.474 77.0694 334.627C77.0895 334.781 77.0788 334.937 77.0376 335.087C76.9964 335.236 76.9256 335.376 76.8296 335.497C76.7336 335.619 76.6143 335.72 76.4785 335.795L21.993 367.307L21.3851 367.417Z" fill="url(#paint22_linear_107_922)"/>
<path d="M369.904 329.714C369.601 329.7 369.313 329.573 369.098 329.359C368.884 329.144 368.757 328.856 368.744 328.553V139.316C368.744 139.008 368.866 138.712 369.084 138.495C369.301 138.277 369.596 138.155 369.904 138.155C370.061 138.147 370.218 138.172 370.365 138.227C370.512 138.282 370.647 138.366 370.761 138.475C370.874 138.583 370.965 138.714 371.026 138.858C371.088 139.003 371.12 139.158 371.12 139.316V328.608C371.092 328.911 370.952 329.193 370.727 329.397C370.502 329.602 370.208 329.715 369.904 329.714Z" fill="#323457"/>
<g filter="url(#filter4_d_107_922)">
<path d="M381.232 129.862L369.959 123.339L358.631 129.862L369.959 136.386L381.232 129.862Z" fill="#FFF6E3"/>
<path d="M369.959 148.824L358.631 142.301V129.862L369.959 136.385V148.824Z" fill="#D89E03"/>
<path d="M381.231 142.301L369.958 148.824V136.385L381.231 129.862V142.301Z" fill="#FFCD48"/>
</g>
<path style="mix-blend-mode:color-dodge" d="M270.88 382.289C271.985 382.952 264.083 388.536 253.197 394.838C242.311 401.141 232.585 405.895 231.425 405.066C230.264 404.236 238.277 398.819 249.163 392.516C260.049 386.214 269.775 381.625 270.88 382.289Z" fill="url(#paint23_radial_107_922)"/>
<g filter="url(#filter5_d_107_922)">
<path d="M119.525 163.419L96.4269 150.096L73.3286 163.419L96.4269 176.798L119.525 163.419Z" fill="#FFF6E3"/>
<path d="M96.4269 202.118L73.3286 188.795V163.42L96.4269 176.798V202.118Z" fill="#D89E03"/>
<path d="M119.525 188.795L96.427 202.118V176.798L119.525 163.42V188.795Z" fill="#FFCD48"/>
</g>
<defs>
<filter id="filter0_d_107_922" x="181.335" y="185.616" width="101.716" height="111.037" filterUnits="userSpaceOnUse" color-interpolation-filters="sRGB">
<feFlood flood-opacity="0" result="BackgroundImageFix"/>
<feColorMatrix in="SourceAlpha" type="matrix" values="0 0 0 0 0 0 0 0 0 0 0 0 0 0 0 0 0 0 127 0" result="hardAlpha"/>
<feOffset dx="-1" dy="-3"/>
<feGaussianBlur stdDeviation="7"/>
<feComposite in2="hardAlpha" operator="out"/>
<feColorMatrix type="matrix" values="0 0 0 0 1 0 0 0 0 0.733333 0 0 0 0 0.0196078 0 0 0 0.4 0"/>
<feBlend mode="normal" in2="BackgroundImageFix" result="effect1_dropShadow_107_922"/>
<feBlend mode="normal" in="SourceGraphic" in2="effect1_dropShadow_107_922" result="shape"/>
</filter>
<filter id="filter1_d_107_922" x="49.2659" y="412.667" width="60.1609" height="64.2113" filterUnits="userSpaceOnUse" color-interpolation-filters="sRGB">
<feFlood flood-opacity="0" result="BackgroundImageFix"/>
<feColorMatrix in="SourceAlpha" type="matrix" values="0 0 0 0 0 0 0 0 0 0 0 0 0 0 0 0 0 0 127 0" result="hardAlpha"/>
<feOffset dx="-1" dy="-3"/>
<feGaussianBlur stdDeviation="7"/>
<feComposite in2="hardAlpha" operator="out"/>
<feColorMatrix type="matrix" values="0 0 0 0 1 0 0 0 0 0.733333 0 0 0 0 0.0196078 0 0 0 0.4 0"/>
<feBlend mode="normal" in2="BackgroundImageFix" result="effect1_dropShadow_107_922"/>
<feBlend mode="normal" in="SourceGraphic" in2="effect1_dropShadow_107_922" result="shape"/>
</filter>
<filter id="filter2_d_107_922" x="275.442" y="143.766" width="60.1606" height="64.2112" filterUnits="userSpaceOnUse" color-interpolation-filters="sRGB">
<feFlood flood-opacity="0" result="BackgroundImageFix"/>
<feColorMatrix in="SourceAlpha" type="matrix" values="0 0 0 0 0 0 0 0 0 0 0 0 0 0 0 0 0 0 127 0" result="hardAlpha"/>
<feOffset dx="-1" dy="-3"/>
<feGaussianBlur stdDeviation="7"/>
<feComposite in2="hardAlpha" operator="out"/>
<feColorMatrix type="matrix" values="0 0 0 0 1 0 0 0 0 0.733333 0 0 0 0 0.0196078 0 0 0 0.4 0"/>
<feBlend mode="normal" in2="BackgroundImageFix" result="effect1_dropShadow_107_922"/>
<feBlend mode="normal" in="SourceGraphic" in2="effect1_dropShadow_107_922" result="shape"/>
</filter>
<filter id="filter3_d_107_922" x="178.849" y="343.452" width="105.474" height="115.294" filterUnits="userSpaceOnUse" color-interpolation-filters="sRGB">
<feFlood flood-opacity="0" result="BackgroundImageFix"/>
<feColorMatrix in="SourceAlpha" type="matrix" values="0 0 0 0 0 0 0 0 0 0 0 0 0 0 0 0 0 0 127 0" result="hardAlpha"/>
<feOffset dx="-1" dy="-3"/>
<feGaussianBlur stdDeviation="7"/>
<feComposite in2="hardAlpha" operator="out"/>
<feColorMatrix type="matrix" values="0 0 0 0 1 0 0 0 0 0.733333 0 0 0 0 0.0196078 0 0 0 0.4 0"/>
<feBlend mode="normal" in2="BackgroundImageFix" result="effect1_dropShadow_107_922"/>
<feBlend mode="normal" in="SourceGraphic" in2="effect1_dropShadow_107_922" result="shape"/>
</filter>
<filter id="filter4_d_107_922" x="343.631" y="106.339" width="50.6011" height="53.4857" filterUnits="userSpaceOnUse" color-interpolation-filters="sRGB">
<feFlood flood-opacity="0" result="BackgroundImageFix"/>
<feColorMatrix in="SourceAlpha" type="matrix" values="0 0 0 0 0 0 0 0 0 0 0 0 0 0 0 0 0 0 127 0" result="hardAlpha"/>
<feOffset dx="-1" dy="-3"/>
<feGaussianBlur stdDeviation="7"/>
<feComposite in2="hardAlpha" operator="out"/>
<feColorMatrix type="matrix" values="0 0 0 0 1 0 0 0 0 0.733333 0 0 0 0 0.0196078 0 0 0 0.4 0"/>
<feBlend mode="normal" in2="BackgroundImageFix" result="effect1_dropShadow_107_922"/>
<feBlend mode="normal" in="SourceGraphic" in2="effect1_dropShadow_107_922" result="shape"/>
</filter>
<filter id="filter5_d_107_922" x="58.3286" y="133.096" width="74.1968" height="80.0224" filterUnits="userSpaceOnUse" color-interpolation-filters="sRGB">
<feFlood flood-opacity="0" result="BackgroundImageFix"/>
<feColorMatrix in="SourceAlpha" type="matrix" values="0 0 0 0 0 0 0 0 0 0 0 0 0 0 0 0 0 0 127 0" result="hardAlpha"/>
<feOffset dx="-1" dy="-3"/>
<feGaussianBlur stdDeviation="7"/>
<feComposite in2="hardAlpha" operator="out"/>
<feColorMatrix type="matrix" values="0 0 0 0 1 0 0 0 0 0.733333 0 0 0 0 0.0196078 0 0 0 0.4 0"/>
<feBlend mode="normal" in2="BackgroundImageFix" result="effect1_dropShadow_107_922"/>
<feBlend mode="normal" in="SourceGraphic" in2="effect1_dropShadow_107_922" result="shape"/>
</filter>
<linearGradient id="paint0_linear_107_922" x1="232.612" y1="445.954" x2="232.558" y2="475" gradientUnits="userSpaceOnUse">
<stop stop-color="#323457"/>
<stop offset="1" stop-color="#6D71BD" stop-opacity="0"/>
</linearGradient>
<linearGradient id="paint1_linear_107_922" x1="420.079" y1="310.279" x2="397.905" y2="326.352" gradientUnits="userSpaceOnUse">
<stop stop-color="#323457" stop-opacity="0"/>
<stop offset="1" stop-color="#6D71BD"/>
</linearGradient>
<linearGradient id="paint2_linear_107_922" x1="346.75" y1="329.548" x2="393.168" y2="329.548" gradientUnits="userSpaceOnUse">
<stop stop-color="#373F67"/>
<stop offset="1" stop-color="#897DBD"/>
</linearGradient>
<linearGradient id="paint3_linear_107_922" x1="346.622" y1="333.974" x2="352.785" y2="358.528" gradientUnits="userSpaceOnUse">
<stop stop-color="#17192E"/>
<stop offset="1" stop-color="#313355"/>
</linearGradient>
<linearGradient id="paint4_linear_107_922" x1="170.695" y1="184.096" x2="296.851" y2="184.096" gradientUnits="userSpaceOnUse">
<stop stop-color="#373F67"/>
<stop offset="1" stop-color="#897DBD"/>
</linearGradient>
<linearGradient id="paint5_linear_107_922" x1="217.223" y1="210.964" x2="187.252" y2="262.864" gradientUnits="userSpaceOnUse">
<stop stop-color="#343B5B"/>
<stop offset="1" stop-color="#283251"/>
</linearGradient>
<linearGradient id="paint6_linear_107_922" x1="197.33" y1="115.046" x2="270.217" y2="115.046" gradientUnits="userSpaceOnUse">
<stop stop-color="#373F67"/>
<stop offset="1" stop-color="#897DBD"/>
</linearGradient>
<linearGradient id="paint7_linear_107_922" x1="224.186" y1="130.581" x2="206.878" y2="160.593" gradientUnits="userSpaceOnUse">
<stop stop-color="#313355"/>
<stop offset="1" stop-color="#212748"/>
</linearGradient>
<linearGradient id="paint8_linear_107_922" x1="289.281" y1="269.233" x2="266.499" y2="308.697" gradientUnits="userSpaceOnUse">
<stop stop-color="#313355"/>
<stop offset="1" stop-color="#0E111E"/>
</linearGradient>
<linearGradient id="paint9_linear_107_922" x1="152.515" y1="269.564" x2="129.733" y2="309.028" gradientUnits="userSpaceOnUse">
<stop stop-color="#313355"/>
<stop offset="1" stop-color="#0E111E"/>
</linearGradient>
<linearGradient id="paint10_linear_107_922" x1="185.283" y1="288.5" x2="281.102" y2="288.5" gradientUnits="userSpaceOnUse">
<stop stop-color="#373F67"/>
<stop offset="1" stop-color="#897DBD"/>
</linearGradient>
<linearGradient id="paint11_linear_107_922" x1="220.594" y1="308.872" x2="197.812" y2="348.335" gradientUnits="userSpaceOnUse">
<stop stop-color="#313355"/>
<stop offset="1" stop-color="#0E111E"/>
</linearGradient>
<linearGradient id="paint12_linear_107_922" x1="288.728" y1="348.234" x2="265.891" y2="387.698" gradientUnits="userSpaceOnUse">
<stop stop-color="#313355"/>
<stop offset="1" stop-color="#161B2F"/>
</linearGradient>
<linearGradient id="paint13_linear_107_922" x1="368.357" y1="423.309" x2="411.238" y2="423.309" gradientUnits="userSpaceOnUse">
<stop stop-color="#373F67"/>
<stop offset="1" stop-color="#897DBD"/>
</linearGradient>
<linearGradient id="paint14_linear_107_922" x1="384.161" y1="432.431" x2="373.986" y2="450.118" gradientUnits="userSpaceOnUse">
<stop stop-color="#313355"/>
<stop offset="1" stop-color="#14182B"/>
</linearGradient>
<linearGradient id="paint15_linear_107_922" x1="-0.000244141" y1="252.924" x2="42.8256" y2="252.924" gradientUnits="userSpaceOnUse">
<stop stop-color="#373F67"/>
<stop offset="1" stop-color="#897DBD"/>
</linearGradient>
<linearGradient id="paint16_linear_107_922" x1="15.8039" y1="262.046" x2="5.62931" y2="279.733" gradientUnits="userSpaceOnUse">
<stop stop-color="#313355"/>
<stop offset="1" stop-color="#14182B"/>
</linearGradient>
<linearGradient id="paint17_linear_107_922" x1="55.4797" y1="300.468" x2="137.374" y2="300.468" gradientUnits="userSpaceOnUse">
<stop stop-color="#373F67"/>
<stop offset="1" stop-color="#897DBD"/>
</linearGradient>
<linearGradient id="paint18_linear_107_922" x1="85.6512" y1="317.938" x2="66.1869" y2="351.654" gradientUnits="userSpaceOnUse">
<stop stop-color="#3A4263"/>
<stop offset="1" stop-color="#1E2750"/>
</linearGradient>
<linearGradient id="paint19_linear_107_922" x1="151.962" y1="348.566" x2="129.125" y2="388.029" gradientUnits="userSpaceOnUse">
<stop stop-color="#313355"/>
<stop offset="1" stop-color="#161B2F"/>
</linearGradient>
<linearGradient id="paint20_linear_107_922" x1="129.472" y1="20.5657" x2="200.701" y2="20.5657" gradientUnits="userSpaceOnUse">
<stop stop-color="#373F67"/>
<stop offset="1" stop-color="#897DBD"/>
</linearGradient>
<linearGradient id="paint21_linear_107_922" x1="155.775" y1="35.7688" x2="138.799" y2="65.1179" gradientUnits="userSpaceOnUse">
<stop stop-color="#20253B"/>
<stop offset="1" stop-color="#202642"/>
</linearGradient>
<linearGradient id="paint22_linear_107_922" x1="21.4246" y1="366.077" x2="77.2524" y2="333.541" gradientUnits="userSpaceOnUse">
<stop stop-color="#6D71BD" stop-opacity="0"/>
<stop offset="1" stop-color="#323457"/>
</linearGradient>
<radialGradient id="paint23_radial_107_922" cx="0" cy="0" r="1" gradientUnits="userSpaceOnUse" gradientTransform="translate(251.279 389.256) rotate(-30.1249) scale(22.8082 2.01434)">
<stop stop-color="#81EDE7"/>
<stop offset="0.21" stop-color="#63B5B0"/>
<stop offset="0.6" stop-color="#2E5452"/>
<stop offset="0.87" stop-color="#0D1817"/>
<stop offset="1"/>
</radialGradient>
</defs>
</svg>
